/* XPM */
static char *_8a4df9931a44c499e0cc5cebe03bcb9aZQSRm8XMrrtgUCv[] = {
/* columns rows colors chars-per-pixel */
"64 64 203 2 ",
"   c None",
".  c #020101",
"X  c #0B0403",
"o  c #0B0B0B",
"O  c #070708",
"+  c #130603",
"@  c #150906",
"#  c #180907",
"$  c #1B0B08",
"%  c #140C0B",
"&  c #0E0E11",
"*  c #131213",
"=  c #1B1A1D",
"-  c #1A1517",
";  c #0F1112",
":  c #260B05",
">  c #380B00",
",  c #24110C",
"<  c #2B110C",
"1  c #36160F",
"2  c #371006",
"3  c #2A1815",
"4  c #3D1A12",
"5  c #361811",
"6  c #1D1D23",
"7  c #211F24",
"8  c #242425",
"9  c #2C2B2D",
"0  c #27242A",
"q  c #352829",
"w  c #2E2E39",
"e  c #372D33",
"r  c #323234",
"t  c #32323A",
"y  c #3A3A3D",
"u  c #460E01",
"i  c #4E0F00",
"p  c #500F00",
"a  c #4F1000",
"s  c #511100",
"d  c #5A1605",
"f  c #5D1807",
"g  c #5F1908",
"h  c #441B13",
"j  c #4C1E16",
"k  c #641C0A",
"l  c #681F0C",
"z  c #4A231A",
"x  c #53251A",
"c  c #5C241A",
"v  c #512017",
"b  c #6D220E",
"n  c #65200F",
"m  c #69291D",
"M  c #662516",
"N  c #732611",
"B  c #7B2A16",
"V  c #742A18",
"C  c #552B24",
"Z  c #453433",
"A  c #533129",
"S  c #672E21",
"D  c #742E20",
"F  c #792F21",
"G  c #6B3224",
"H  c #7D3123",
"J  c #773727",
"K  c #3C3B45",
"L  c #3B3B48",
"P  c #454546",
"I  c #42424C",
"U  c #4B4B4D",
"Y  c #48454A",
"T  c #464655",
"R  c #4A4A55",
"E  c #474758",
"W  c #494959",
"Q  c #525154",
"!  c #59585A",
"~  c #5A4D4E",
"^  c #634D49",
"/  c #535363",
"(  c #5B5B62",
")  c #5B5B6B",
"_  c #63636E",
"`  c #666666",
"'  c #636372",
"]  c #6A6A74",
"[  c #6D6D7A",
"{  c #727272",
"}  c #73737D",
"|  c #79797B",
" . c #812E19",
".. c #85301A",
"X. c #8C341E",
"o. c #843425",
"O. c #8C3726",
"+. c #8F3728",
"@. c #8F3828",
"#. c #853D2A",
"$. c #953A22",
"%. c #9A3E25",
"&. c #913928",
"*. c #9A3E2C",
"=. c #903720",
"-. c #8C412D",
";. c #9D412C",
":. c #9F4027",
">. c #9D4832",
",. c #A3432C",
"<. c #AA472D",
"1. c #A54531",
"2. c #A84732",
"3. c #AD4A33",
"4. c #A64D36",
"5. c #B44D35",
"6. c #B84F34",
"7. c #AD5038",
"8. c #BB5236",
"9. c #BB533A",
"0. c #B6543A",
"q. c #C2563A",
"w. c #C5593D",
"e. c #CB5B3E",
"r. c #D05E3F",
"t. c #BD6852",
"y. c #CC5D40",
"u. c #C65C41",
"i. c #D15F41",
"p. c #C86248",
"a. c #D56143",
"s. c #DC6646",
"d. c #DF6748",
"f. c #DF6848",
"g. c #DD765A",
"h. c #E06747",
"j. c #E06848",
"k. c #E06847",
"l. c #E16F50",
"z. c #E27153",
"x. c #E3795D",
"c. c #CE7963",
"v. c #E37D62",
"b. c #DC8F7B",
"n. c #E5876F",
"m. c #E68B72",
"M. c #E7927B",
"N. c #737381",
"B. c #7A7A85",
"V. c #7D7D8B",
"C. c #817E88",
"Z. c #82828C",
"A. c #878787",
"S. c #858592",
"D. c #8A8994",
"F. c #8C8C9A",
"G. c #898791",
"H. c #92929C",
"J. c #9B9B9B",
"K. c #969393",
"L. c #9494A1",
"P. c #9E9EA5",
"I. c #9C9CAA",
"U. c #A3A2A2",
"Y. c #A1A1AD",
"T. c #ABABAC",
"R. c #A4A4B3",
"E. c #AAAAB1",
"W. c #ACACBB",
"Q. c #B4B4B4",
"!. c #B4B4BB",
"~. c #B8B8BA",
"^. c #E19D8B",
"/. c #EAA694",
"(. c #EBAB9A",
"). c #EBB6A9",
"_. c #EBBBB0",
"`. c #EFC2B5",
"'. c #B5B5C4",
"]. c #BDBDCC",
"[. c #B7B7C8",
"{. c #C2C2C3",
"}. c #C5C5CB",
"|. c #CACACC",
" X c #C1C1D1",
".X c #CCCCD4",
"XX c #CECED9",
"oX c #D3D3DB",
"OX c #DBDBDC",
"+X c #D4D4D4",
"@X c #F3D7CF",
"#X c #F3D9D3",
"$X c #F0CAC0",
"%X c #DCDCE2",
"&X c #D7D7E0",
"*X c #E3E3E4",
"=X c #E5E5E9",
"-X c #EBEBEC",
";X c #F6E9E5",
":X c #F5F4F5",
">X c #F9F9F9",
",X c #F7F7F8",
"<X c #F2EFF0",
/* pixels */
"                                                                                                                                ",
"                                                                                                                                ",
"                                                                                                                                ",
"                                                                    s s s                                                       ",
"                                                                    s s s s s s                                                 ",
"                                                      a s         i p s s s s a s                                               ",
"                                                    s s s s s   k d s s s s s a s i s                                           ",
"                                                    s a a s f N =. .l s i a s s s s i s s                                       ",
"                                      s s i i     d s p p p l $.8.9.,.X.b d s i i s p s s p s                                   ",
"                                      s s s s k B  .l d p k  .3.s.j.a.q.,...b k s s i s s p s i s                               ",
"                        p p         s s s s d b $.<.%.N k N %.q.d.k.h.s.a.q.<...l d s s s s p s s p i                           ",
"                      s s s i d l b k d s s k X.6.r.e.6.:.,.q.s.f.k.k.k.h.s.e.8.,.X.N f s p s s p s s s s                       ",
"                      p s s s k B $.X.B k f B ,.r.j.j.a.q.5.8.u.a.d.j.j.j.j.d.s.i.8.,...N f s s i s s s a s                     ",
"                    u i i a s b %.6.8.<.X.B $.8.s.h.h.s.w.3.;.2.9.e.a.s.k.j.f.f.h.a.e.8.,. .l k s s s s s s                     ",
"                    > > u a d ..5.a.d.i.q.<.5.q.i.d.d.i.5.;.&.&.&.2.8.e.s.f.j.f.j.d.d.a.e.6.,. .b f s s i                       ",
"                  X + : : u n %.q.d.j.d.i.8.2.3.q.y.i.w.2.&.&.&.&.&.;.2.5.w.a.d.j.k.d.d.s.a.w.6.:...b k d                       ",
"                  . . X + 2 V 7.a.f.k.s.e.3.*.*.,.5.8.3.*.&.+.+.+.&.&.&.*.2.9.i.j.j.j.j.j.j.h.i.w.5.$.B n                       ",
"                . . . . X 1 -.9.s.f.f.a.9.,.&.@.&.&.&.*.&.&.&.&.&.&.+.&.&.*.2.u.d.j.j.j.j.j.h.h.d.a.8.$.N                       ",
"                . . . . # x 4.a.k.k.f.e.3.*.&.&.&.&.+.&.&.+.&.+.&.+.&.+.&.*.3.y.d.j.h.j.j.j.h.h.k.s.8.X.k s                     ",
"              0 = & O X 1 J 9.s.k.k.a.9.;.&.&.&.+.&.&.+.&.&.@.&.+.&.+.+.+.1.q.i.d.s.h.v.n.m.v.z.k.a.,.B d s s s                 ",
"              L w 0 - * x >.p.f.j.d.u.3.*.&.&.+.+.&.&.&.&.+.&.&.&.&.&.+.&.3.y.h.j.h.l.M.(._./.M.x.e.X.n d a a s                 ",
"            W T I L w 0 A 4.a.f.j.i.8.;.&.&.&.&.&.+.+.&.&.&.+.+.&.+.&.&.1.9.i.j.j.j.x.).@X;X#X`.^.t.H f s a s s                 ",
"            W W W T K 9 z J 4.9.u.u.2.*.&.&.+.&.+.&.&.&.+.&.+.&.&.&.+.&.5.y.s.j.h.z.M.`.;X,X<X;X_.c.;.V n d a s                 ",
"          E E E W W K 7 - 3 x J >.3.;.&.&.+.&.+.&.&.&.&.&.o.+.&.&.&.&.*.q.i.h.j.h.v.(.#X:X>X>X;X_.c.9.<.X.N f                   ",
"        E E W W W T w & . . @ 5 S &.&.&.@.&.@.@.&.&.+.+.o.V D o.O.O.*.3.u.s.d.j.h.v.(.@X;X,X:X@X/.x.f.r.6.%.B                   ",
"        W W E W W L 6 O . . . $ v o.&.&.@.@.+.@.&.+.&.o.m 1 < h m o.;.w.s.d.d.j.j.z.n./._.#X;X).n.z.j.h.r.<.B d                 ",
"        W E E W / R t = O . . < c o.&.&.O.H F o.o.&.&.H h # . # < h F 7.s.j.j.j.j.j.z.v.M./.).b.l.f.h.k.e.%.b s s s             ",
"      W E W W W ' N.] R 9 * % j H +.&.&.o.M v v D o.o.m , X . . . + 4 J 4.u.i.d.j.j.j.j.z.v.c.t.u.a.s.a.6.N f s s s s           ",
"      W W E W W B.Y.R.F.[ Y q c O.+.&.+.D 1 # # 1 c D C @ . . . . . X # 5 G 4.a.i.j.j.j.j.i.7.2.1.5.u.q.,.k s s i s s           ",
"      E E E W ) L.[.].[.R.V.Z C D H +.o.c # . . X $ Z ~ 0 o . . . . . . + , z >.u.i.j.j.d.u.*.&.&.*.2.5.,.N d s s s             ",
"          E / N.R.]. X X[.F.q < h c D m 4 X . . . * ! D.} R 9 o . . . . . X < o.2.9.y.i.u.5.&.&.&.&.,.0.q.%. .b f s             ",
"            ( V.R.[.]. XE.] * . + < h 5 $ . . . O t S. X].I.} I = o O . . + h o.*.*.3.9.5.*.&.&.+.&.1.e.a.e.3.$.N               ",
"              ] V.L.W.].D.y O . . . X X . . . . * ' R. X X].'.R.V.R 8 . . < M O.&.&.*.,.*.&.&.+.+.&.9.a.k.f.s.8.$.k             ",
"            R / ' N.D.R.} 9 X . . . . . . . . O r H.]. X]. X X X!.L.} Q 9 C o.+.&.&.&.&.&.&.&.@.&.2.y.j.k.k.k.8. .d i           ",
"            E E W / ] L.Z.Q 8 ; X . . . . . . 6 ( W. X X X X X X X X'.L.~ A D o.+.&.&.+.&.&.&.&.*.5.a.j.k.f.a.<.b d i a s       ",
"          W W W W W ) Y.Q.U.{ U 9 o O . . . O y D.[. X X X X X X X X].R./ 3 1 c D +.+.&.&.&.&.&.2.e.d.j.f.s.9.X.s s a a a       ",
"          E W E W / B.}.-X*X|.U.{ P 8 ; O . = ` '.]. X X X X X].}.].'.F.w X + , 5 M o.+.&.&.&.;.8.a.d.j.d.a.;.n a a p i s       ",
"            E W W [ P.%X>X>X:XOX{.U.{ P 8 = K Z. X X X X]. X X X].].Y._ = . . . : j o.&.&.&.&.3.u.j.d.j.a.0.M 2 > u i i         ",
"                / V.~.=X,X,X,X>X,X-X{.K.` U ' L.[. X]. X X X X X X'.Z.t o . . X , v o.&.&.@.&.5.y.d.d.d.u.-.5 + : : u u         ",
"                  B.I.|.=X:X:X,X,X:X:X*X{.G.| D.W.[.]. X X]. X X].Y._ * . . . X 4 D &.&.&.o.H #.7.y.d.a.7.x $ . X + # >         ",
"                  ) N.F.!..X=X:X,X>X>X:X|.| P P [ H.W.]. X X X].'.V.K O . . . , c o.+.&.O.D x z S -.7.7.#.< X . . . X           ",
"                W W / ' B.I..X=X:X:X,X=XT.P * o 9 Q | L.W.]. X].I.( = . . . X < M o.+.&.o.M < $ , h G J A & . . . .             ",
"                W W W W / N.!.oX=X-X-X|.A.6 . . . o 8 U N.R.'.E.Z.t . . . . X @ h m H o.D h + . . o 3 q e 3 & O . .             ",
"                W W W W ) B.W. XoXoXoXT.( * . . . . O ; 8 I ] } Q = . . . . . X # < h c x 3 X . . O - 9 L K 0 - &               ",
"                W W W / N.H.'. X X.X.XE.| r - O O . . . . ; r ( { Y * . . . . . . X , A ^ ~ 9 ; O o 6 L T T K w 0               ",
"                    W ) B.Y.[. X X X.X|.T.| Q r * O . . . O 9 { Q.J.! 9 * O . . . X = ! K.U.{ P 8 6 w L W T T T                 ",
"                      ' V.R.[. X XXXOX-X;XOXQ.| U 8 o O . = ! T.=X=X|.U.` 9 ; X . o r A.|.OX{.J.] R T T E W W W                 ",
"                      / N.S.I.W.].oX-X,X>X:X-X+XT.A.Q 8 o r A.+X:X>X:X*X{.J.` y - 8 ! ~.-X:X-X+XJ._ W T W W E                   ",
"                      / / ' N.F.R.}.=X:X,X>X>X,X<X+XT.| ! { Q.:X>X>X>X,X<X*X{.K.` ! A.+X:X,X:XOXT.] W W E W E                   ",
"                      E E W / ' V.Y.}.OX-X:X,X,X,X,X<XOX}.].oX:X:X,X,X>X,X:X-XOX~.J.U..X-X:X-X].G./ W W W W                     ",
"                    R W E E E W / [ G.E.|.*X<X:X>X>X>X:X%XXXXX%X=X:X>X>X>X>X,X<X}.H.N.H.!.|.|.P.} W W W W T                     ",
"                    W E E W W W W W ) } F.E.|.=X<X,X,X-X&XXX X XoXoXoX*X<X>X,X*X!.B./ _ B.H.P.Z.) W W W W                       ",
"                      W E E W E E W T W / } H.!.+X*X=X=XXX X]. X].W.Y.E.}.*X=X|.H.) W W / ' } ' / E W W W                       ",
"                          W E W W W W W W W / ] D.!..X.X X X X].W.S.[ ) N.P.!.Y.} ! W W W R         W W                         ",
"                              E W E E W W W E W ( [ V.H.W.[. X[.L.N./ W / [ V.B.) W W W W                                       ",
"                                  W W W W W W E T T / ' B.H.R.R.V.' W W E / /     E E W W                                       ",
"                                      W R W W W E E W W W ) N.V.[ / E E W E                                                     ",
"                                          W W W E W E E W W / )   W W W E W                                                     ",
"                                              W E E E W E E E         W W                                                       ",
"                                                E E W W E W                                                                     ",
"                                                      R W E                                                                     ",
"                                                                                                                                ",
"                                                                                                                                ",
"                                                                                                                                "
};
