/* XPM */
static char *_e21db42d04b442bf3fc4f855404ec782Y3Mix3DrmlLQT3i[] = {
/* columns rows colors chars-per-pixel */
"64 64 39 1 ",
"  c None",
". c black",
"X c #501000",
"o c #484858",
"O c #903828",
"+ c red",
"@ c #FF0101",
"# c #FF0102",
"$ c #FD0303",
"% c #FE0202",
"& c #FF0202",
"* c #FF0303",
"= c #FD0404",
"- c #FD0405",
"; c #FD0505",
": c #FE0404",
"> c #FE0405",
", c #FD0506",
"< c #FD0707",
"1 c #FD0708",
"2 c #FB0808",
"3 c #FD0808",
"4 c #FD0809",
"5 c #FC0A0B",
"6 c #F70F11",
"7 c #FA0F10",
"8 c #F81112",
"9 c #F91113",
"0 c #F91314",
"q c #F81618",
"w c #F71B1D",
"e c #F51C1E",
"r c #F32224",
"t c #F1282B",
"y c #EC363A",
"u c #EA3C41",
"i c #E06848",
"p c #C0C0D0",
"a c #F8F8F8",
/* pixels */
"                                                                ",
"                                                                ",
"                                                                ",
"                                                                ",
"                                                                ",
"                                                                ",
"                                                                ",
"                                                                ",
"                                                                ",
"                                                                ",
"                                                                ",
"                                                                ",
"                        XXXXXXXXXXXXXXXX                        ",
"                        XXXXXXXXXXXXXXXX                        ",
"                        XXXXXXXXXXXXXXXX                        ",
"                        XXXXXXXXXXXXXXXX                        ",
"                    XXXXiiiiiiiiiiiiiiiiXXXX                    ",
"                    XXXXiiiiiiiiiiiiiiiiXXXX                    ",
"                    XXXXiiiiiiiiiiiiiiiiXXXX                    ",
"                    XXXXiiiiiiiiiiiiiiiiXXXX                    ",
"                XXXXiiiiaaaaiiiiOOOOOOOOiiiiXXXX                ",
"                XXXXiiiiaaaaiiiiOOOOOOOOiiiiXXXX                ",
"                XXXXiiiiaaaaiiiiOOOOOOOOiiiiXXXX                ",
"                XXXXiiiiaaaaiiiiOOOOOOOOiiiiXXXX                ",
"            XXXXiiiiOOOOiiiiiiiiOOOOOOOOOOOOiiiiXXXX            ",
"            XXXXiiiiOOOOiiiiiiiiOOOOOOOOOOOOiiiiXXXX            ",
"            XXXXiiiiOOOOiiiiiiiiOOOOOOOOOOOOiiiiXXXX            ",
"            XXXXiiiiOOOOiiiiiiiiOOOOOOOOOOOOiiiiXXXX            ",
"            ....iiiiOOOOOOOO........OOOOOOOOiiii....            ",
"            ....iiiiOOOOOOOO........OOOOOOOOiiii....            ",
"            ....iiiiOOOOOOOO........OOOOOOOOiiii....            ",
"            ....iiiiOOOOOOOO........OOOOOOOOiiii....            ",
"            oooo....OOOO....q:3:###t....OOOO....oooo            ",
"            oooo....OOOO....##:####<....OOOO....oooo            ",
"            oooo....OOOO....:##2#e:3....OOOO....oooo            ",
"            oooo....OOOO....5##:w<#0....OOOO....oooo            ",
"            ooooaaaa........8##=2##3........ppppoooo            ",
"            ooooaaaa........########........ppppoooo            ",
"            ooooaaaa........#######6........ppppoooo            ",
"            ooooaaaa........y8r1##2u........ppppoooo            ",
"                ooooaaaaaaaa........aaaaaaaaoooo                ",
"                ooooaaaaaaaa........aaaaaaaaoooo                ",
"                ooooaaaaaaaa........aaaaaaaaoooo                ",
"                ooooaaaaaaaa........aaaaaaaaoooo                ",
"                    ooooppppaaaaaaaappppoooo                    ",
"                    ooooppppaaaaaaaappppoooo                    ",
"                    ooooppppaaaaaaaappppoooo                    ",
"                    ooooppppaaaaaaaappppoooo                    ",
"                        oooooooooooooooo                        ",
"                        oooooooooooooooo                        ",
"                        oooooooooooooooo                        ",
"                        oooooooooooooooo                        ",
"                                                                ",
"                                                                ",
"                                                                ",
"                                                                ",
"                                                                ",
"                                                                ",
"                                                                ",
"                                                                ",
"                                                                ",
"                                                                ",
"                                                                ",
"                                                                "
};
