/* XPM */
static char *_ae9de0cb3b945fdcf8595f13f0cfcecSktprCgvYRbNgJkb[] = {
/* columns rows colors chars-per-pixel */
"64 64 206 2 ",
"   c None",
".  c #020101",
"X  c #0B0403",
"o  c #0B0B0B",
"O  c #070708",
"+  c #130603",
"@  c #150906",
"#  c #1B0B08",
"$  c #160B09",
"%  c #0E0E11",
"&  c #131213",
"*  c #1B1A1D",
"=  c #1A1517",
"-  c #0F1112",
";  c #260B05",
":  c #380B00",
">  c #24110C",
",  c #2B110C",
"<  c #36160F",
"1  c #371006",
"2  c #2A1815",
"3  c #391912",
"4  c #1D1D23",
"5  c #211F24",
"6  c #242425",
"7  c #2C2B2D",
"8  c #27242A",
"9  c #352829",
"0  c #2E2E39",
"q  c #372D33",
"w  c #323234",
"e  c #32323A",
"r  c #3A3A3D",
"t  c #460E01",
"y  c #4E0F00",
"u  c #500F00",
"i  c #4F1000",
"p  c #511100",
"a  c #5A1605",
"s  c #5D1807",
"d  c #5F1908",
"f  c #441B13",
"g  c #4C1E16",
"h  c #641C0A",
"j  c #681F0C",
"k  c #4A231A",
"l  c #53251A",
"z  c #5C241A",
"x  c #512017",
"c  c #6D220E",
"v  c #65200F",
"b  c #69291D",
"n  c #662516",
"m  c #732611",
"M  c #7B2A16",
"N  c #742A18",
"B  c #552B24",
"V  c #453433",
"C  c #533129",
"Z  c #672E21",
"A  c #742E20",
"S  c #792F21",
"D  c #6B3224",
"F  c #7D3123",
"G  c #773727",
"H  c #3C3B45",
"J  c #3B3B48",
"K  c #454546",
"L  c #42424C",
"P  c #4B4B4D",
"I  c #48454A",
"U  c #464655",
"Y  c #4A4A55",
"T  c #474758",
"R  c #494959",
"E  c #525154",
"W  c #59585A",
"Q  c #5A4D4E",
"!  c #634D49",
"~  c #535363",
"^  c #5B5B62",
"/  c #5B5B6B",
"(  c #63636E",
")  c #666666",
"_  c #636372",
"`  c #6A6A74",
"'  c #6D6D7A",
"]  c #727272",
"[  c #73737D",
"{  c #79797B",
"}  c #812E19",
"|  c #85301A",
" . c #8C341E",
".. c #843425",
"X. c #8C3726",
"o. c #8F3728",
"O. c #8F3828",
"+. c #853D2A",
"@. c #953A22",
"#. c #9A3E25",
"$. c #913928",
"%. c #9A3E2C",
"&. c #903720",
"*. c #8C412D",
"=. c #9D412C",
"-. c #9F4027",
";. c #9D4832",
":. c #A3432C",
">. c #AA472D",
",. c #A54531",
"<. c #A84732",
"1. c #AD4A33",
"2. c #A64D36",
"3. c #B44D35",
"4. c #B84F34",
"5. c #AD5038",
"6. c #BB5236",
"7. c #BB533A",
"8. c #B6543A",
"9. c #C2563A",
"0. c #C5593D",
"q. c #CB5B3E",
"w. c #D05E3F",
"e. c #BD6852",
"r. c #CC5D40",
"t. c #C65C41",
"y. c #D15F41",
"u. c #C86248",
"i. c #D56142",
"p. c #D56244",
"a. c #DA6545",
"s. c #DD6647",
"d. c #DC6646",
"f. c #DF6748",
"g. c #DF6848",
"h. c #DD765A",
"j. c #E06747",
"k. c #E06848",
"l. c #E16A4A",
"z. c #E16848",
"x. c #E06847",
"c. c #E16F50",
"v. c #E27153",
"b. c #E3795D",
"n. c #CE7963",
"m. c #E37D62",
"M. c #DC8F7B",
"N. c #E5876F",
"B. c #E68B72",
"V. c #E7927B",
"C. c #737381",
"Z. c #7A7A85",
"A. c #7D7D8B",
"S. c #817E88",
"D. c #82828C",
"F. c #878787",
"G. c #858592",
"H. c #8A8994",
"J. c #8C8C9A",
"K. c #898791",
"L. c #92929C",
"P. c #9B9B9B",
"I. c #969393",
"U. c #9494A1",
"Y. c #9E9EA5",
"T. c #9C9CAA",
"R. c #A1A1AD",
"E. c #ABABAC",
"W. c #A3A2A2",
"Q. c #A4A4B3",
"!. c #ACACBB",
"~. c #AAAAB1",
"^. c #B4B4B4",
"/. c #B4B4BB",
"(. c #B8B8BA",
"). c #E19D8B",
"_. c #EAA694",
"`. c #EBAB9A",
"'. c #EBB6A9",
"]. c #EBBBB0",
"[. c #EFC2B5",
"{. c #B5B5C4",
"}. c #BDBDCC",
"|. c #B7B7C8",
" X c #C2C2C3",
".X c #C5C5CB",
"XX c #CACACC",
"oX c #C1C1D1",
"OX c #CCCCD4",
"+X c #CECED9",
"@X c #D3D3DB",
"#X c #DBDBDC",
"$X c #D4D4D4",
"%X c #F3D7CF",
"&X c #F3D9D3",
"*X c #F0CAC0",
"=X c #DCDCE2",
"-X c #D7D7E0",
";X c #E3E3E4",
":X c #E5E5E9",
">X c #EBEBEC",
",X c #F6E9E5",
"<X c #F5F4F5",
"1X c #F9F9F9",
"2X c #F7F7F8",
"3X c #F2EFF0",
/* pixels */
"                                                                                                                                ",
"                                                                                                                                ",
"                                                                                                                                ",
"                                                      p p p                                                                     ",
"                                                u p p p p i                                                                     ",
"                                              p i p p u p y y         p i                                                       ",
"                                          p i p p p p p p p s h   p i p p p                                                     ",
"                                      p y p u p u i y p p j } &.m s p p i p                                                     ",
"                                  p u p y p p p u p a c  .>.6.6.@.c p p u p s     y u p p                                       ",
"                              p p i i p p y p p s c | :.6.i.l.a.3.M s p s j M M h p y p p                                       ",
"                          p u p p u p u p p a j } >.9.i.s.s.l.s.9.#.m j m @.>.@.m p p p p p         u p                         ",
"                      p p i u p p u u u a m  .>.9.w.a.x.x.x.k.k.a.9.:.#.4.q.y.4. .j p p a j c j a p u p p                       ",
"                    p p p p u y u p h m  .-.6.q.a.s.x.k.f.l.s.p.q.6.3.9.p.k.f.y.>.M s h M  .@.M h u p u y                       ",
"                    i i y p p p h j } -.4.q.a.f.x.x.k.k.f.a.r.7.>.:.1.0.a.k.f.a.6.&.M  .>.6.6.@.c p i i y t                     ",
"                      p p p s c | -.4.q.i.s.k.k.z.z.s.a.r.4.,.$.$.$.%.3.y.f.f.a.9.3.>.9.y.a.i.3.| s i t : :                     ",
"                      a h c | -.3.q.i.d.k.k.k.k.s.y.0.3.<.=.$.o.o.o.$.1.0.y.r.7.1.<.3.i.s.l.s.0.#.v : : ; + X                   ",
"                      c M #.3.0.i.a.x.x.x.x.x.s.y.7.1.%.$.$.$.$.$.$.$.%.1.3.3.,.%.%.1.r.d.k.k.y.1.N 1 + X . .                   ",
"                      c @.6.i.g.x.x.x.x.x.x.l.a.0.,.%.$.$.$.o.$.$.$.$.$.$.%.$.$.$.$.:.7.y.k.k.s.0.+.< X . . . .                 ",
"                    p j  .6.a.x.x.j.j.x.l.s.x.s.r.1.%.$.o.$.o.o.o.$.o.$.$.$.o.$.o.$.%.1.r.k.k.k.p.2.l $ . . . .                 ",
"                p p p a M >.y.g.c.N.N.N.b.l.x.s.p.7.:.$.$.o.$.$.o.$.$.o.$.$.$.$.$.$.$.,.7.y.k.l.s.7.G < O O % * 8               ",
"                p i p p v  .t.h.B._.'.'.V.l.l.l.a.r.1.$.$.$.o.$.$.$.o.$.o.$.$.o.o.o.$.$.1.0.f.k.g.u.2.k & * 8 0 J               ",
"                p p p p s ..e.).[.%X,X&X'.b.l.k.f.p.7.,.$.o.$.o.o.$.$.X.$.$.o.$.$.$.$.$.:.8.y.k.s.i.2.C 6 w J L U R             ",
"                p p p v M =.n.].,X3X2X,X*XV.v.x.f.f.r.3.$.$.$.$.$.$.$.$.$.o.o.$.$.$.$.$.%.<.q.t.8.2.D k 7 L U T R R             ",
"                  h m  .>.7.n.].,X1X1X<X&X_.b.x.f.f.p.9.=.$.O.$.$.X.X.o.o.$.$.$.o.$.$.$.$.=.1.;.G l 3 = 5 H U T R R R           ",
"                  M @.4.y.f.b._.%X1X3X,X%X`.m.j.j.z.j.r.1.%.X.X...N S ..$.o.o.$.o.o.$.$.$.$.$.Z 3 @ . . % 0 U R R T U T         ",
"                a M >.r.f.l.g.B.].,X&X[._.N.v.j.j.z.z.y.0.=.F b f , < b X.$.o.$.o.o.X.O.$.$...x # . . . O 4 J R R R R R         ",
"            i p p c #.q.l.l.g.v.M.'._.V.m.v.l.l.l.l.z.y.8.A f , + O + f F $.o.....S F o.$.o...z , . . O 4 e R ~ U R T T         ",
"          p p p p a m 6.p.a.r.t.u.n.b.v.l.z.z.l.z.y.t.5.G 3 + . . . X > b ..F A l x b ..$.$.X.F g $ & 7 Y ` C._ R R R R R       ",
"          p p i p p h -.9.9.3.,.;.5.y.l.l.l.j.y.y.2.D 3 # X . . . . . $ B A z 1 # + < N O.o.o.X.Z 9 K ` J.Q.Q.A.R R T R R       ",
"            p p p h m :.3.>.%.%.$.;.t.y.l.z.y.t.;.x > X . . . . . . o 8 Q V # X . . # z ..o.F A B q S.~.|.}.|.J./ R U R R       ",
"            p a c } #.9.6.:.$.O.$.%.1.r.y.r.7.<..., O . . . . . % 7 Y [ H.W % . . . X 3 b A z f 2 9 H.|.oXoX}.Q.C.~ U           ",
"              M &.3.9.a.q.,.$.O.$.$.%.3.9.<.%.%...f + . . O o 4 L ' R.}.oXG.e o . . . # 3 f , + . & ` Q.}.}.}.Q.A./             ",
"            j &.6.d.d.k.y.8.%.$.$.$.$.=.=.%.$.$...b , . . 6 Y Z.Q.{.}.}.oXQ.` & . . . . X X . . . O r K.}.!.T.A._               ",
"          y a } 9.k.k.k.f.r.,.$.$.$.$.$.$.$.$.$.$...B 9 Y { U.{.oXoXoXoXoX}.L.0 o . . . . . . . . O 7 [ Q.H.C./ ~ R             ",
"      p p y p c >.y.x.k.l.p.4.=.$.$.o.$.$.$.$.o...A C W U.|.}.oX.XoXoXoXoXoX!.^ 4 . . . . . . O % 6 Y F.U.` ~ R R R             ",
"      i u p p p  .9.d.k.k.d.q.,.$.$.$.o.$.o.o.S z < 2 E Q.}.oXoX}.oX}.oXoXoX|.H.r O . . . O o 8 P ] W.(.R.( R R R R R           ",
"      p y u y y j =.i.f.l.g.a.3.%.$.$.$.o...n 3 ; X X e H.{.}.oXoXoXoXoXoXoX}.{.) * . O % 6 K ] W.XX;X>X X{ ~ R T R R           ",
"        y y t : 1 n 8.p.g.g.s.q.1.$.$.$.O...g # O . . * ( R.}.oXoXoX}.oXoXoXoX}.D.H * 6 K ] W. X#X<X1X1X;XY.' R R R             ",
"        t : : ; + 3 *.t.g.g.g.t.3.$.$.$.o.X.z > . . . o e K.{.}.oX}.}.oXoX}.oX}.P.( P ) I. X>X2X1X1X1X<X;X(.A.~                 ",
"        : ; X . . $ l 5.p.a.i.5.+.F ..X.$.X.N 3 + . . . & ( R.|.}.oXoXoXoX}.|.!.J.Z.F. X;X3X2X2X1X1X<X;XXXT.Z.                  ",
"          X . . . O > +.8.5.*.Z l l S X.O.O...z > X . . O r D.{.oXoXoX}.}.!.L.' K K { .X<X1X1X2X<X:XOX/.L.' /                   ",
"            . . . . $ B G D f > $ , z ..O.o...n , X . . . * ^ T.}.oX}.!.U.[ E 7 % - K E.;X2X2X<X:XXXY.Z._ ~ R R                 ",
"            . . O % * q 9 2 X . . + g A ..F Z f # . . . . . e G.!.{.Q.Z.P 6 o . . . * F.XX>X>X:X@X!.Z.~ R R R R                 ",
"              % 4 8 e J e = O . . . < l z f , $ . . . . . . * E [ ` L 6 & O . . . . - ) ~.-X-X@XoX!.A./ R U R R                 ",
"              8 0 J L U H 4 O O - 6 ! ! V > X . . . . . . & K ] W e - . . . . . O & r { E.XXOXoXoX{.L.' ~ R R R                 ",
"                U U R T L 0 4 6 K ] W.I.Q * X . . . O & 7 W I.(.] 7 O . . . O = 7 E { E..XOXoXoXoX}.T.A./ R                     ",
"                R R R R U J Y ] P. X;XXXF.w o . . - 7 ) W.OX:X:XE.W * . O % 6 P F.^.#X3X>X=X+XoX}.{.T.G._                       ",
"                  R R R R R ) P.$X3X1X:X(.W 6 * r ) P. X;X<X1X<X#XF.w o 6 P F.E.$X;X<X1X2X>X@X}.{.T.G.C./                       ",
"                  R R U R R ` R.#X<X1X<X$XF.W ) K. X;X<X2X2X1X2X<X^.] W ] E.$X3X1X1X1X1X<X:XoXQ.G.C._ ~ ~                       ",
"                    R R R R ~ H.}.>X<X:XOXW.W.(.#X3X<X<X1X1X2X2X3X@X X.X;X<X1X2X1X2X<X>X#XXXR.A./ ~ R T R                       ",
"                    R R R R R [ Y.XXXX/.L.[ L..X<X<X1X1X1X1X2X:X-XOXOX=X<X2X2X2X2X3X;XXX~.K.' ~ R R R R T R                     ",
"                      R R R R / D.Y.L.A.( ~ A.^.;X<X1X3X=X-X@X+XOXoXOX=X>X<X2X3X;XXX~.H.' / R R R T T T R R                     ",
"                      R R R R E ` ' ( ~ R R _ L.XX;X;X.X~.R.Q.}.oXoXoX+X=X>X:XOX/.L.' ~ R R R R R R R T R                       ",
"                        R R         R R R U ~ [ R.(.Y.Z.( ` G.{.}.oXoXoXOXOX/.H.` ~ R R R T R R R R R                           ",
"                                      U R R R / Z.D.` ~ R ~ C.T.|.oX|.Q.U.A.' / R R R R R T R R T                               ",
"                                      R R R R     ~ R R R R / D.Q.Q.U.A.( ~ U R R R R R R R T                                   ",
"                                                    R R R R ~ ` A.C./ T R R R R R R R R R                                       ",
"                                                    R R R R R   / ~ R R R R R R R R T                                           ",
"                                                      R R         R R R R U U R R                                               ",
"                                                                    R R R R R R                                                 ",
"                                                                    R R R                                                       ",
"                                                                                                                                ",
"                                                                                                                                ",
"                                                                                                                                "
};
