/* XPM */
static char *_7712d58c3b44cf8e57de68aeb476d64dF3Adw7A9BRhJiVe[] = {
/* columns rows colors chars-per-pixel */
"64 64 177 2 ",
"   c None",
".  c #080806",
"X  c #0D0B0B",
"o  c #070405",
"O  c #100E0E",
"+  c #100F10",
"@  c #141313",
"#  c #181616",
"$  c #181816",
"%  c #1A1719",
"&  c #171A19",
"*  c #1D1C1C",
"=  c #201E1E",
"-  c #221F21",
";  c #242223",
":  c #292626",
">  c #2A2827",
",  c #292529",
"<  c #2C2B2B",
"1  c #302F2F",
"2  c #332629",
"3  c #31302F",
"4  c #322C33",
"5  c #372E39",
"6  c #382E3D",
"7  c #343333",
"8  c #393636",
"9  c #363837",
"0  c #393439",
"q  c #3C3A3A",
"w  c #443C3E",
"e  c #483539",
"r  c #543A3E",
"t  c #40403E",
"y  c #3D3342",
"u  c #413D41",
"i  c #423848",
"p  c #483C49",
"a  c #573C40",
"s  c #523F4D",
"d  c #444343",
"f  c #494647",
"g  c #494847",
"h  c #494648",
"j  c #4C4A4B",
"k  c #504E4F",
"l  c #52504F",
"z  c #4F4255",
"x  c #4F4E51",
"c  c #524357",
"v  c #5F4E56",
"b  c #53445A",
"n  c #555353",
"m  c #595657",
"M  c #595857",
"N  c #5A5459",
"B  c #5C5A5B",
"V  c #68474C",
"C  c #624E58",
"Z  c #794C52",
"A  c #605E5F",
"S  c #66525C",
"D  c #5E4D65",
"F  c #615166",
"G  c #6D5762",
"H  c #615F60",
"J  c #675669",
"K  c #765F6A",
"L  c #6A5573",
"P  c #765E7A",
"I  c #656363",
"U  c #696767",
"Y  c #696867",
"T  c #686768",
"R  c #6B6A6B",
"E  c #79616D",
"W  c #706D6E",
"Q  c #6F6D70",
"!  c #76637D",
"~  c #757375",
"^  c #787677",
"/  c #79787D",
"(  c #86555D",
")  c #8E5A63",
"_  c #955B65",
"`  c #896E7B",
"'  c #755F81",
"]  c #776180",
"[  c #7D658D",
"{  c #7E7D82",
"}  c #7E6591",
"|  c #846C8F",
" . c #81678D",
".. c #8F7E83",
"X. c #9A7C8B",
"o. c #806692",
"O. c #846B95",
"+. c #896E97",
"@. c #866D98",
"#. c #896F99",
"$. c #867096",
"%. c #8E7695",
"&. c #8D739C",
"*. c #91759E",
"=. c #93799F",
"-. c #A07F90",
";. c #9277A0",
":. c #957AA1",
">. c #997EA4",
",. c #9B7FA8",
"<. c #878589",
"1. c #988292",
"2. c #9C9B9B",
"3. c #999599",
"4. c #AC899F",
"5. c #A09F9E",
"6. c #9C81A6",
"7. c #9D82A7",
"8. c #9F83A7",
"9. c #9D80A5",
"0. c #9C81A6",
"q. c #9E82A9",
"w. c #9F85A9",
"e. c #9E83A9",
"r. c #A184A7",
"t. c #A284A7",
"y. c #A084A7",
"u. c #A185A9",
"i. c #A386A9",
"p. c #A387AB",
"a. c #A185AA",
"s. c #A487AA",
"d. c #A587AC",
"f. c #A185AA",
"g. c #A588AB",
"h. c #A388AC",
"j. c #A689AD",
"k. c #A589AD",
"l. c #A88BAE",
"z. c #BB94AC",
"x. c #AA8EB1",
"c. c #AE92B3",
"v. c #B296B6",
"b. c #B196B8",
"n. c #BB9BB7",
"m. c #ACABAD",
"M. c #A3A0A1",
"N. c #ADAAB1",
"B. c #BCBBBA",
"V. c #C1A0B7",
"C. c #C4A4BA",
"Z. c #BDBBC2",
"A. c #C3C1C7",
"S. c #C5C3CB",
"D. c #C8C7CE",
"F. c #CDCBCD",
"G. c #CDCAD2",
"H. c #D2D0D7",
"J. c #D6D5DE",
"K. c #D8D7DE",
"L. c #D9D8DF",
"P. c #D7D6E0",
"I. c #D8D7E0",
"U. c #DCDCE3",
"Y. c #E1DFE6",
"T. c #E3E1E6",
"R. c #E4E4EA",
"E. c #E9E7EA",
"W. c #ECEAED",
"Q. c #E7E6F0",
"!. c #ECE9F1",
"~. c #F1EFF1",
"^. c #F4F2F4",
"/. c #F7F7F9",
"(. c #FAF7FA",
"). c #F7F8F9",
"_. c #FBFBFC",
/* pixels */
"                                                  a.9.                                                                          ",
"                                                l.a.a.a.                                                                        ",
"                                              9.w.w.w.                                                                          ",
"                                              >.:.6.9.                                                                          ",
"                                                  0.                                                                            ",
"                                                                                                                                ",
"                                                  e.>.                                                                          ",
"                                  g.j.          e.>.:.;.                    j.                  n.b.                            ",
"                              j.a.a.a.i.t.g.a.w.6.6.>.;.                  d.d.d.s.          c.c.c.c.x.                          ",
"                              9.9.a.i.s.h.h.9.0.0.6.;.&.              j.g.g.g.g.s.t.        l.l.c.j.a.9.                        ",
"                            8.9.a.a.j.j.h.8.>.:.:.;.            =.=.9.s.g.g.g.t.y.y.,.      t.g.i.w.9.,.                        ",
"                          w.w.w.j.a.a.a.8.:.*.;.;.              >.=.,.a.g.t.t.,.y.>.:.>.  >.>.9.w.8.e.e.                        ",
"                        w.6.>.>.9.t.9.9.>.&.#.&.&.>.            >.=.>.>.>.>.>.>.>.=.:.:.:.:.:.>.:.9.0.a.                        ",
"                        :.;.;.;.>.,.>.:.#.O.O.@.&.>.p.a.8.w.l.6.>.=.=.=.=.=.*.*.=.=.;.:.:.=.:.=.:.:.:.:.                        ",
"                        *.&.&.*.:.:.;.O.o.o.} O.&.>.>.w.w.a.h.w.>.*.#.O.O.o.+.+.=.:.:.:.:.;.:.:.:.:.:.>.                        ",
"                          &.&.&.*.&.O.} } O.} L b z c F &.c.j.0.=.+.o.o. .o.o.+.#.*.=.:.:.    >.=.:.:.                          ",
"                        *.&.*.*.&.+.O.6 < M R R T R R ~ R I g : ' o.} } } } } O.#.&.*.:.>.      :.:.:.                          ",
"                  >.:.>.*.*.=.*.| < Y R Y I I I I I I I Y Y R R R u y o.} } } O.O.#.*.:.                                        ",
"i.>.            >.:.=.:.*.=.:.= R R I I I I H B M j d d g j B T T R T d D } o.O.O.O.&.*.                                        ",
">.:.            >.:.=.>.=.[ M R Y I I I I H B M x g d q 7 1 1 q x A H Y T % O.O.O.O.O.O.&.            0.                        ",
">.>.            >.=.:.>.5 ~ R T H B B B A A B m n j q 7 7 7 > ; < u k B H I 7 O.O.o.O.o.o.        >.>.0.6.                      ",
"          X   0.=.=.:.- W T T M g d j n m m m n g t 9 < ; = = ; < q g j n B A q [ o.o.o. .O.  *.0.0.w.w.w.7.                    ",
"    =.=.>.>.a.>.=.>., R Y B 3 9 8 u d g j n j f t q 9 7 > = * * ; 7 w j j x m A 8 #.o.o.O.O.+.*.:.w.h.j.h.w.0.            j.b.  ",
"    :.:.:.>.p w.>.4 Y Y M 8 : : < < q q q q q 8 9 7 ; * * * * * * < 7 u g j x M I , @.O.O.O.+.&.:.9.j.j.h.w.0.:.        >.a.j.v.",
"    >.>.>.F 5.s.! d Y B g q = = * * , < 1 < < > > ; * * * * * * * ; > < 9 f j j B T i &.&.$.+.*.;.6.h.h.p.>.:.;.          8.l.  ",
"  >.9.9.g.3.(.%.X Y A k d : * * * * * ; ; ; ; ; * * * * * * * * * * ; ; : 7 q d j I R &.*.&.*.*.;.6.w.w.>.:.&.            9.    ",
"  9.y.9.P _.^.j I I j 8 ; * * * * * $ * * * * * * * * * * * * * * * * = = = : ; : j T = &.&.$.&.&.;.>.>.;.&.@.          :.9.    ",
",.9.9.,.k ~.^._.I j q : * * * * * * * * * * * * * * * * * * * * * * * * = * X ; ; 7 H Q O.&.#.+.&.;.;.;.;.&.@.        ;.:.8.c.v.",
"  e.9.j.B.^././.$ q : * * * * * * * * * * * * * * * * * * * * * * * * = X H.x = ; ; d I < #.#.#.&.&.&.;.&.&.@.        =.9.a.c.v.",
"    a.,.^.(./.^.W < ; * * * * * * * * * * * * * * * * * * * * * * * @ { J.P.H.; = ; < M H ;.#.&.&.&.&.@.#.              9.k.c.v.",
"    a.! _.^.^.^.(.# = * * * * * * * * * * * * * * * * * * * * * * @ U.I.I.P.U.X = ; : d R } #.&.#.#.@.@.$.                c.    ",
"    0.b (.^.^.^.^.m ; * * * * * * * * * * * * * * * * * * * * @ <.P.P.P.I.P.P.+ * ; ; 8 I z #.&.#.#.&.#.                        ",
"      X ^.^.^.^.^.^.$ ; = * ; * * * * * * * * * ; = = = = = @ ~.U.U.K.K.P.K.J.{ = = ; < A 8 +.#.*.&.#.*.                        ",
"      = ^.^.^.^.^.^.M.< ; = ; * * * * * * * * ; ; = % = = ~ ^.~.E.U.L.L.P.P.K.K.: & ; < M g #.*.*.*.*.:.        *.>.a.l.v.      ",
"      > ).).).^.^.^.(.$ > ; ; * * * * * * = = = = = = O Y.~.^.~.W.T.L.L.I.P.K.Y.+ : = > k B &.+.*.*.#.*.        *.>.t.l.c.v.    ",
"      . _.^._._.(.^.).m.< < : = * * * = ; ; ; ; : ; O (.^.~.^.^.W.R.T.U.U.P.P.Y.X r ; : j I *.*.*.*.#.#.        *.=.a.l.c.c.    ",
"        _.^.^.^.(._.^.~.X 7 1 ; * * * < ; = ; ; ; I ^.^.^.^.^.^.~.Q.R.U.U.U.U.Q.+ V ; : g I *.*.*.&.&.&.&.&.*.&.*.=.7.l.x.b.    ",
"        _.^.^.^.^.^.^.F.S.8 7 p * * * < ; ; > = 5.~.^.^.^.^.^.^.~.R.R.U.T.U.U.R.& Z - : j M *.&.*.&.&.&.&.*.*.*.;.:.0.i.l.j.    ",
"        A.E.~.^.^.^.~.$ K.q d V * * ; 9 : : X W.^.^.^.^.^.^.^.~.E.R.R.U.U.U.U.D.* a ; , n m ;.&.&.&.&.&.*.*.*.=.:.:.9.8.i.i.    ",
"        / P.R.E.W.E.R.~ I.I.$ ( * * ; g 8 + _.(._./.^.^.^.^.^.~.R.R.U.U.U.P.P.T @ e ; < M < &.*.&.&.&.*.*.*.=.=.:.:.:.0.8.9.a.  ",
"        i U.R.R.Q.Y.U.U.U.G.= - * * = < . ^.^.^.F.W.^.^.^.^.~.W.T.R.U.U.U.L.I.@ & ; ; 7 I * *.*.*.;.*.*.;.:.:.>.0.=.:.0.:.:.0.  ",
"      a.=.E.U.U.U.U.U.U.U...* * * * ; ; + ^.^.^._._.^.^.^.^.W.Y.R.Y.U.Y.U.U.E.* * = < d T c &.*.*.;.:.:.;.:.:.>.0.:.:.0.0.:.,.  ",
"    x.g.w.u U.U.U.U.U.U.U.Z - * * * ; < ; _.^.).^.~.~.~.^.W.Y.U.U.U.Y.Y.R.R.<.* = ; < M B *.*.*.&.*.;.;.;.;.:.:.;.=.=.:.:.:.>.  ",
"    c.l.l.%.G.U.U.U.U.U.G.: * * * * = > 3 2.E.W.W.W.W.W.T.Y.L.L.U.Y.R.R.R.R.* * ; > 8 I # *.&.*.&.;.;.*.*.&.*.;.;.&.;.=.:.:.    ",
"    l.c.c.x.4 Y.U.U.I.U._ * * * * * * > 1 ( ~.Y.T.T.T.Y.Y.L.I.I.U.R.R.R.R.X : ; : 7 n T D &.&.*.;.;.*.*.*.*.&.;.&.*.*.>.:.      ",
"      j.x.x.x.0 S.Y.E.2 $ * * * * * * < 1 e = Y.L.L.Y.L.L.L.L.I.R.R.R.Y.R < < 7 7 u I < ;.*.&.*.;.;.*.&.*.&.*.;.&.*.            ",
"      l.l.l.h.a., 7 d : - * * $ * * = < < 4 _ @ U.K.K.K.K.K.I.U.R.R.U.3.< 7 9 q d m A F ;.;.;.:.;.*.*.*.&.;.;.&.=.              ",
"          l.l.i.= R 1 7 ; * * * * * * < 3 7 < ) > <.U.K.K.K.I.U.U.R.x 9 9 9 9 q j Y & &.;.;.;.:.0.:.*.=.;.;.:.:.>.              ",
"            x.t.* Z.< @ < - * * * * * : 1 3 1 < 8 7 + m S.I.H.Z.d : 7 7 8 q q f B ; &.&.&.&.:.:.*.:.:.0.:.:.9.8.                ",
"              >.* E.>.;.X , # - * * , < 1 3 1 1 < 1 < , X 8 $ 9 7 7 8 8 q u f M f [ @.#.@.&.*.*.0.:.0.:.:.>.8.l.                ",
"              >.4 c ;.;.y C -.E = # < 7 7 7 1 < ; + 4 N.A.v 7 7 7 8 q d d g m m L &.$.O.O.$.&.&.:.>.:.                          ",
"              >.>.:.>.:.>.# G X.X.X.X.E S G K ` X.X.# G.Z.; 7 8 9 q d g j M n ! &.&.&.@.O.@.O.&.*.:.                            ",
"              >.:.:.:.:.;.&.< w X.X.X.X.X.X.X.X.X.X.X.^ N.7 8 9 d g j n B 3  .&.=.*.&.&.O.@.O.@.&.:.                            ",
"              :.:.:.:.  *.$.&.O , X.X.4.z.z.n.V.C.C.* % m 3 q d g n M I * :.;.;.=.:.&.&.&.O.&.&.&.                              ",
"                            #.*., < 1 < G 1.1.m @ * ; : : 8 d n A H @ O.>.>.>.0.>.:.&.&.&.&.&.&.;.                              ",
"                              *.*.;.4 ; j j d j d d d k B I T q & %.0.:.:.;.;.:.:.:.*.&.#.&.O.@.&.                              ",
"                              &.&.*.&.&.@.z @ @ : < < = ; c *.6.;.>.:.;.;.=.:.:.:.:.&.#.@.O.O.O.#.>.  >.>.>.                    ",
"                              *.*.*.;.&.&.@.@.#.:.>.=.:.>.6.6.e.>.>.:.*.*.*.:.&.;.;.&.O.O.O.O.O.&.    ,.>.>.                    ",
"                              >.;.;.:.;.*.&.&.&.*.*.:.:.;.:.:.>.>.;.;.&.        ;.#.@.} } } }         >.>.,.                    ",
"                              :.:.:.:.:.*.&.&.&.*.      &.&.&.;.;.&.@.&.        #.O.} } [                                       ",
"                                :.:.>.>.;.*.*.*.:.        O.O.@.O.O.@.          O.o.[ } }                                       ",
"                                    :.:.:.>.*.=.*.;.      [ } O.@.O.                o.o.        &.:.                            ",
"                                      :.:.:.>.*.*.&.                                                                            ",
"                                        :.>.                                                                                    "
};
