/* XPM */
static char *result[] = {
/* columns rows colors chars-per-pixel */
"64 77 14 1 ",
"  c black",
". c #682828",
"X c #383878",
"o c #784040",
"O c #C03838",
"+ c #F86848",
"@ c #B89838",
"# c #D89070",
"$ c #F8D858",
"% c #70A0C0",
"& c #F8C090",
"* c #B0B0D0",
"= c #E8E8F8",
"- c None",
/* pixels */
"----------------------------------------------------------------",
"----------------................................----------------",
"----------------................................----------------",
"----------------................................----------------",
"----------------................................----------------",
"------------....OOOO++++++++++++++++++++++++OOOO....------------",
"------------....OOOO++++++++++++++++++++++++OOOO....------------",
"------------....OOOO++++++++++++++++++++++++OOOO....------------",
"------------....OOOO++++++++++++++++++++++++OOOO....------------",
"--------....OOOO++++++++++++++++++++++++++++++++....------------",
"--------....OOOO++++++++++++++++++++++++++++++++....------------",
"--------....OOOO++++++++++++++++++++++++++++++++....------------",
"--------....OOOO++++++++++++++++++++++++++++++++....------------",
"----........====++++++++++++++++++++++++++++++++OOOO....--------",
"----........====++++++++++++++++++++++++++++++++OOOO....--------",
"----........====++++++++++++++++++++++++++++++++OOOO....--------",
"----........====++++++++++++++++++++++++++++++++OOOO....--------",
"    ====....====OOOO++++++++++++++++++++++++OOOOOOOO....--------",
"    ====....====OOOO++++++++++++++++++++++++OOOOOOOO....--------",
"    ====....====OOOO++++++++++++++++++++++++OOOOOOOO....--------",
"    ====....====OOOO++++++++++++++++++++++++OOOOOOOO....--------",
"    ====OOOO****OOOOOOOOOOOOOOOOOOOOOOOOOOOOOOOOOOOO....--------",
"    ====OOOO****OOOOOOOOOOOOOOOOOOOOOOOOOOOOOOOOOOOO....--------",
"    ====OOOO****OOOOOOOOOOOOOOOOOOOOOOOOOOOOOOOOOOOO....--------",
"    ====OOOO****OOOOOOOOOOOOOOOOOOOOOOOOOOOOOOOOOOOO....--------",
"    ====****OOOOOOOOOOOOOOOOOOOOOOOOOOOOOOOOOOOO....    --------",
"    ====****OOOOOOOOOOOOOOOOOOOOOOOOOOOOOOOOOOOO....    --------",
"    ====****OOOOOOOOOOOOOOOOOOOOOOOOOOOOOOOOOOOO....    --------",
"    ====****OOOOOOOOOOOOOOOOOOOOOOOOOOOOOOOOOOOO....    --------",
"----    ************OOOOOOOOOOOOOOOOOOOO........oooo    --------",
"----    ************OOOOOOOOOOOOOOOOOOOO........oooo    --------",
"----    ************OOOOOOOOOOOOOOOOOOOO........oooo    --------",
"----    ************OOOOOOOOOOOOOOOOOOOO........oooo    --------",
"--------ooooXXXX........................oooooooooooo    --------",
"--------ooooXXXX........................oooooooooooo    --------",
"--------ooooXXXX........................oooooooooooo    --------",
"--------ooooXXXX........................oooooooooooo    --------",
"--------oooo########    ########oooo&&&&####oooo    ------------",
"--------oooo########    ########oooo&&&&####oooo    ------------",
"--------oooo########    ########oooo&&&&####oooo    ------------",
"--------oooo########    ########oooo&&&&####oooo    ------------",
"------------oooo&&&&oooo&&&&########&&&&####    ----------------",
"------------oooo&&&&oooo&&&&########&&&&####    ----------------",
"------------oooo&&&&oooo&&&&########&&&&####    ----------------",
"------------oooo&&&&oooo&&&&########&&&&####    ----------------",
"----------------oooo################oooooooo@@@@    ------------",
"----------------oooo################oooooooo@@@@    ------------",
"----------------oooo################oooooooo@@@@    ------------",
"----------------oooo################oooooooo@@@@    ------------",
"----------------....oooooooo    XXXXXXXX@@@@$$$$$$$$    --------",
"----------------....oooooooo    XXXXXXXX@@@@$$$$$$$$    --------",
"----------------....oooooooo    XXXXXXXX@@@@$$$$$$$$    --------",
"----------------....oooooooo    XXXXXXXX@@@@$$$$$$$$    --------",
"----------------....OOOOOOOOXXXXXXXX&&&&&&&&oooooooo    --------",
"----------------....OOOOOOOOXXXXXXXX&&&&&&&&oooooooo    --------",
"----------------....OOOOOOOOXXXXXXXX&&&&&&&&oooooooo    --------",
"----------------....OOOOOOOOXXXXXXXX&&&&&&&&oooooooo    --------",
"----------------        OOOO    XXXX########oooo@@@@    --------",
"----------------        OOOO    XXXX########oooo@@@@    --------",
"----------------        OOOO    XXXX########oooo@@@@    --------",
"----------------        OOOO    XXXX########oooo@@@@    --------",
"------------    XXXX        %%%%        oooooooo    ------------",
"------------    XXXX        %%%%        oooooooo    ------------",
"------------    XXXX        %%%%        oooooooo    ------------",
"------------    XXXX        %%%%        oooooooo    ------------",
"------------        OOOOXXXX                    ----------------",
"------------        OOOOXXXX                    ----------------",
"------------        OOOOXXXX                    ----------------",
"------------        OOOOXXXX                    ----------------",
"----------------            ------------------------------------",
"----------------            ------------------------------------",
"----------------            ------------------------------------",
"----------------            ------------------------------------",
"----------------------------------------------------------------",
"----------------------------------------------------------------",
"----------------------------------------------------------------",
"----------------------------------------------------------------"
};
