/* XPM */
static char *result[] = {
/* columns rows colors chars-per-pixel */
"64 77 14 1 ",
"  c black",
". c #682828",
"X c #383878",
"o c #784040",
"O c #C03838",
"+ c #F86848",
"@ c #B89838",
"# c #D89070",
"$ c #F8D858",
"% c #70A0C0",
"& c #F8C090",
"* c #B0B0D0",
"= c #E8E8F8",
"- c None",
/* pixels */
"----------------------------------------------------------------",
"----------------................................----------------",
"----------------................................----------------",
"----------------................................----------------",
"----------------................................----------------",
"------------....OOOO++++++++++++++++++++++++OOOO....------------",
"------------....OOOO++++++++++++++++++++++++OOOO....------------",
"------------....OOOO++++++++++++++++++++++++OOOO....------------",
"------------....OOOO++++++++++++++++++++++++OOOO....------------",
"------------....++++++++++++++++++++++++++++++++OOOO....--------",
"------------....++++++++++++++++++++++++++++++++OOOO....--------",
"------------....++++++++++++++++++++++++++++++++OOOO....--------",
"------------....++++++++++++++++++++++++++++++++OOOO....--------",
"--------....OOOO++++++++++++++++++++++++++++++++====........----",
"--------....OOOO++++++++++++++++++++++++++++++++====........----",
"--------....OOOO++++++++++++++++++++++++++++++++====........----",
"--------....OOOO++++++++++++++++++++++++++++++++====........----",
"--------....OOOOOOOO++++++++++++++++++++++++OOOO====....====    ",
"--------....OOOOOOOO++++++++++++++++++++++++OOOO====....====    ",
"--------....OOOOOOOO++++++++++++++++++++++++OOOO====....====    ",
"--------....OOOOOOOO++++++++++++++++++++++++OOOO====....====    ",
"--------....OOOOOOOOOOOOOOOOOOOOOOOOOOOOOOOOOOOO****OOOO====    ",
"--------....OOOOOOOOOOOOOOOOOOOOOOOOOOOOOOOOOOOO****OOOO====    ",
"--------....OOOOOOOOOOOOOOOOOOOOOOOOOOOOOOOOOOOO****OOOO====    ",
"--------....OOOOOOOOOOOOOOOOOOOOOOOOOOOOOOOOOOOO****OOOO====    ",
"--------    ....OOOOOOOOOOOOOOOOOOOOOOOOOOOOOOOOOOOO****====    ",
"--------    ....OOOOOOOOOOOOOOOOOOOOOOOOOOOOOOOOOOOO****====    ",
"--------    ....OOOOOOOOOOOOOOOOOOOOOOOOOOOOOOOOOOOO****====    ",
"--------    ....OOOOOOOOOOOOOOOOOOOOOOOOOOOOOOOOOOOO****====    ",
"--------    oooo........OOOOOOOOOOOOOOOOOOOO************    ----",
"--------    oooo........OOOOOOOOOOOOOOOOOOOO************    ----",
"--------    oooo........OOOOOOOOOOOOOOOOOOOO************    ----",
"--------    oooo........OOOOOOOOOOOOOOOOOOOO************    ----",
"--------    oooooooooooo........................XXXXoooo--------",
"--------    oooooooooooo........................XXXXoooo--------",
"--------    oooooooooooo........................XXXXoooo--------",
"--------    oooooooooooo........................XXXXoooo--------",
"------------    oooo####&&&&oooo########    ########oooo--------",
"------------    oooo####&&&&oooo########    ########oooo--------",
"------------    oooo####&&&&oooo########    ########oooo--------",
"------------    oooo####&&&&oooo########    ########oooo--------",
"----------------    ####&&&&########&&&&oooo&&&&oooo------------",
"----------------    ####&&&&########&&&&oooo&&&&oooo------------",
"----------------    ####&&&&########&&&&oooo&&&&oooo------------",
"----------------    ####&&&&########&&&&oooo&&&&oooo------------",
"------------    @@@@oooooooo################oooo----------------",
"------------    @@@@oooooooo################oooo----------------",
"------------    @@@@oooooooo################oooo----------------",
"------------    @@@@oooooooo################oooo----------------",
"--------    $$$$$$$$@@@@XXXXXXXX    oooooooo....----------------",
"--------    $$$$$$$$@@@@XXXXXXXX    oooooooo....----------------",
"--------    $$$$$$$$@@@@XXXXXXXX    oooooooo....----------------",
"--------    $$$$$$$$@@@@XXXXXXXX    oooooooo....----------------",
"--------    oooooooo&&&&&&&&XXXXXXXXOOOOOOOO....----------------",
"--------    oooooooo&&&&&&&&XXXXXXXXOOOOOOOO....----------------",
"--------    oooooooo&&&&&&&&XXXXXXXXOOOOOOOO....----------------",
"--------    oooooooo&&&&&&&&XXXXXXXXOOOOOOOO....----------------",
"--------    @@@@oooo########XXXX    OOOO        ----------------",
"--------    @@@@oooo########XXXX    OOOO        ----------------",
"--------    @@@@oooo########XXXX    OOOO        ----------------",
"--------    @@@@oooo########XXXX    OOOO        ----------------",
"------------    oooooooo        %%%%        XXXX    ------------",
"------------    oooooooo        %%%%        XXXX    ------------",
"------------    oooooooo        %%%%        XXXX    ------------",
"------------    oooooooo        %%%%        XXXX    ------------",
"----------------                    XXXXOOOO        ------------",
"----------------                    XXXXOOOO        ------------",
"----------------                    XXXXOOOO        ------------",
"----------------                    XXXXOOOO        ------------",
"------------------------------------            ----------------",
"------------------------------------            ----------------",
"------------------------------------            ----------------",
"------------------------------------            ----------------",
"----------------------------------------------------------------",
"----------------------------------------------------------------",
"----------------------------------------------------------------",
"----------------------------------------------------------------"
};
