/* XPM */
static char *result[] = {
/* columns rows colors chars-per-pixel */
"64 81 13 1 ",
"  c black",
". c #682828",
"X c #383878",
"o c #784040",
"O c #C03838",
"+ c #A87840",
"@ c #F86848",
"# c #D89070",
"$ c #70A0C0",
"% c #F8C090",
"& c #B0B0D0",
"* c #E8E8F8",
"= c None",
/* pixels */
"================================================================",
"================................................================",
"================................................================",
"================................................================",
"================................................================",
"============....OOOO@@@@@@@@@@@@@@@@@@@@@@@@OOOO....============",
"============....OOOO@@@@@@@@@@@@@@@@@@@@@@@@OOOO....============",
"============....OOOO@@@@@@@@@@@@@@@@@@@@@@@@OOOO....============",
"============....OOOO@@@@@@@@@@@@@@@@@@@@@@@@OOOO....============",
"============....@@@@@@@@@@@@@@@@@@@@@@@@@@@@@@@@....============",
"============....@@@@@@@@@@@@@@@@@@@@@@@@@@@@@@@@....============",
"============....@@@@@@@@@@@@@@@@@@@@@@@@@@@@@@@@....============",
"============....@@@@@@@@@@@@@@@@@@@@@@@@@@@@@@@@....============",
"========....OOOO@@@@@@@@@@@@@@@@@@@@@@@@@@@@@@@@OOOO....========",
"========....OOOO@@@@@@@@@@@@@@@@@@@@@@@@@@@@@@@@OOOO....========",
"========....OOOO@@@@@@@@@@@@@@@@@@@@@@@@@@@@@@@@OOOO....========",
"========....OOOO@@@@@@@@@@@@@@@@@@@@@@@@@@@@@@@@OOOO....========",
"========    OOOOOOOO@@@@@@@@@@@@@@@@@@@@@@@@OOOOOOOO    ========",
"========    OOOOOOOO@@@@@@@@@@@@@@@@@@@@@@@@OOOOOOOO    ========",
"========    OOOOOOOO@@@@@@@@@@@@@@@@@@@@@@@@OOOOOOOO    ========",
"========    OOOOOOOO@@@@@@@@@@@@@@@@@@@@@@@@OOOOOOOO    ========",
"========    OOOOOOOOOOOOOOOO********OOOOOOOOOOOOOOOO    ========",
"========    OOOOOOOOOOOOOOOO********OOOOOOOOOOOOOOOO    ========",
"========    OOOOOOOOOOOOOOOO********OOOOOOOOOOOOOOOO    ========",
"========    OOOOOOOOOOOOOOOO********OOOOOOOOOOOOOOOO    ========",
"====    ++++....&&&&OOOO&&&&OOOOOOOO&&&&OOOO&&&&....++++    ====",
"====    ++++....&&&&OOOO&&&&OOOOOOOO&&&&OOOO&&&&....++++    ====",
"====    ++++....&&&&OOOO&&&&OOOOOOOO&&&&OOOO&&&&....++++    ====",
"====    ++++....&&&&OOOO&&&&OOOOOOOO&&&&OOOO&&&&....++++    ====",
"====    ####    XXXX************************XXXX    ####    ====",
"====    ####    XXXX************************XXXX    ####    ====",
"====    ####    XXXX************************XXXX    ####    ====",
"====    ####    XXXX************************XXXX    ####    ====",
"========    oooo####XXXXXXXXXXXXXXXXXXXXXXXX####oooo    ========",
"========    oooo####XXXXXXXXXXXXXXXXXXXXXXXX####oooo    ========",
"========    oooo####XXXXXXXXXXXXXXXXXXXXXXXX####oooo    ========",
"========    oooo####XXXXXXXXXXXXXXXXXXXXXXXX####oooo    ========",
"========    ########%%%%    %%%%%%%%    %%%%########    ========",
"========    ########%%%%    %%%%%%%%    %%%%########    ========",
"========    ########%%%%    %%%%%%%%    %%%%########    ========",
"========    ########%%%%    %%%%%%%%    %%%%########    ========",
"============oooo########oooo%%%%%%%%oooo########oooo============",
"============oooo########oooo%%%%%%%%oooo########oooo============",
"============oooo########oooo%%%%%%%%oooo########oooo============",
"============oooo########oooo%%%%%%%%oooo########oooo============",
"========    XXXX    oooo################oooo    XXXX    ========",
"========    XXXX    oooo################oooo    XXXX    ========",
"========    XXXX    oooo################oooo    XXXX    ========",
"========    XXXX    oooo################oooo    XXXX    ========",
"====oooo%%%%XXXXXXXXOOOO                OOOOXXXXXXXX%%%%oooo====",
"====oooo%%%%XXXXXXXXOOOO                OOOOXXXXXXXX%%%%oooo====",
"====oooo%%%%XXXXXXXXOOOO                OOOOXXXXXXXX%%%%oooo====",
"====oooo%%%%XXXXXXXXOOOO                OOOOXXXXXXXX%%%%oooo====",
"====oooo########XXXXOOOOOOOO&&&&&&&&OOOOOOOOXXXX########oooo====",
"====oooo########XXXXOOOOOOOO&&&&&&&&OOOOOOOOXXXX########oooo====",
"====oooo########XXXXOOOOOOOO&&&&&&&&OOOOOOOOXXXX########oooo====",
"====oooo########XXXXOOOOOOOO&&&&&&&&OOOOOOOOXXXX########oooo====",
"========oooo        OOOO@@@@********@@@@OOOO        oooo========",
"========oooo        OOOO@@@@********@@@@OOOO        oooo========",
"========oooo        OOOO@@@@********@@@@OOOO        oooo========",
"========oooo        OOOO@@@@********@@@@OOOO        oooo========",
"============XXXX$$$$XXXX                XXXX$$$$XXXX============",
"============XXXX$$$$XXXX                XXXX$$$$XXXX============",
"============XXXX$$$$XXXX                XXXX$$$$XXXX============",
"============XXXX$$$$XXXX                XXXX$$$$XXXX============",
"============        $$$$$$$$        $$$$$$$$        ============",
"============        $$$$$$$$        $$$$$$$$        ============",
"============        $$$$$$$$        $$$$$$$$        ============",
"============        $$$$$$$$        $$$$$$$$        ============",
"============    XXXXXXXX    ========    XXXXXXXX    ============",
"============    XXXXXXXX    ========    XXXXXXXX    ============",
"============    XXXXXXXX    ========    XXXXXXXX    ============",
"============    XXXXXXXX    ========    XXXXXXXX    ============",
"================        ================        ================",
"================        ================        ================",
"================        ================        ================",
"================        ================        ================",
"================================================================",
"================================================================",
"================================================================",
"================================================================"
};
