/* XPM */
static char *result[] = {
/* columns rows colors chars-per-pixel */
"64 82 13 1 ",
"  c black",
". c #682828",
"X c #383878",
"o c #784040",
"O c #C03838",
"+ c #A87840",
"@ c #F86848",
"# c #B89838",
"$ c #D89070",
"% c #F8D858",
"& c #70A0C0",
"* c #F8C090",
"= c None",
/* pixels */
"================================================================",
"================================================================",
"================................................================",
"================................................================",
"================................................================",
"================................................================",
"============....OOOO@@@@@@@@@@@@@@@@@@@@@@@@OOOO....============",
"============....OOOO@@@@@@@@@@@@@@@@@@@@@@@@OOOO....============",
"============....OOOO@@@@@@@@@@@@@@@@@@@@@@@@OOOO....============",
"============....OOOO@@@@@@@@@@@@@@@@@@@@@@@@OOOO....============",
"============....@@@@@@@@@@@@@@@@@@@@@@@@@@@@@@@@....============",
"============....@@@@@@@@@@@@@@@@@@@@@@@@@@@@@@@@....============",
"============....@@@@@@@@@@@@@@@@@@@@@@@@@@@@@@@@....============",
"============....@@@@@@@@@@@@@@@@@@@@@@@@@@@@@@@@....============",
"========....OOOO@@@@@@@@@@@@@@@@@@@@@@@@@@@@@@@@OOOO....========",
"========....OOOO@@@@@@@@@@@@@@@@@@@@@@@@@@@@@@@@OOOO....========",
"========....OOOO@@@@@@@@@@@@@@@@@@@@@@@@@@@@@@@@OOOO....========",
"========....OOOO@@@@@@@@@@@@@@@@@@@@@@@@@@@@@@@@OOOO....========",
"========....OOOOOOOO@@@@@@@@@@@@@@@@@@@@@@@@OOOOOOOO....========",
"========....OOOOOOOO@@@@@@@@@@@@@@@@@@@@@@@@OOOOOOOO....========",
"========....OOOOOOOO@@@@@@@@@@@@@@@@@@@@@@@@OOOOOOOO....========",
"========....OOOOOOOO@@@@@@@@@@@@@@@@@@@@@@@@OOOOOOOO....========",
"========    OOOOOOOOOOOOOOOOOOOOOOOOOOOOOOOOOOOOOOOO    ========",
"========    OOOOOOOOOOOOOOOOOOOOOOOOOOOOOOOOOOOOOOOO    ========",
"========    OOOOOOOOOOOOOOOOOOOOOOOOOOOOOOOOOOOOOOOO    ========",
"========    OOOOOOOOOOOOOOOOOOOOOOOOOOOOOOOOOOOOOOOO    ========",
"========    ....OOOOOOOOOOOOOOOOOOOOOOOOOOOOOOOO....    ========",
"========    ....OOOOOOOOOOOOOOOOOOOOOOOOOOOOOOOO....    ========",
"========    ....OOOOOOOOOOOOOOOOOOOOOOOOOOOOOOOO....    ========",
"========    ....OOOOOOOOOOOOOOOOOOOOOOOOOOOOOOOO....    ========",
"====    ++++oooo....OOOOOOOO        OOOOOOOO....oooo++++    ====",
"====    ++++oooo....OOOOOOOO        OOOOOOOO....oooo++++    ====",
"====    ++++oooo....OOOOOOOO        OOOOOOOO....oooo++++    ====",
"====    ++++oooo....OOOOOOOO        OOOOOOOO....oooo++++    ====",
"====    $$$$    oooo........................oooo    $$$$    ====",
"====    $$$$    oooo........................oooo    $$$$    ====",
"====    $$$$    oooo........................oooo    $$$$    ====",
"====    $$$$    oooo........................oooo    $$$$    ====",
"========        oooooooo++++oooooooo++++oooooooo        ========",
"========        oooooooo++++oooooooo++++oooooooo        ========",
"========        oooooooo++++oooooooo++++oooooooo        ========",
"========        oooooooo++++oooooooo++++oooooooo        ========",
"============            oooooooooooooooo            ============",
"============            oooooooooooooooo            ============",
"============            oooooooooooooooo            ============",
"============            oooooooooooooooo            ============",
"========    XXXXoooo####                ####oooo        ========",
"========    XXXXoooo####                ####oooo        ========",
"========    XXXXoooo####                ####oooo        ========",
"========    XXXXoooo####                ####oooo        ========",
"====oooo****XXXXOOOO####OOOOOOOOOOOOOOOO####OOOOXXXX****oooo====",
"====oooo****XXXXOOOO####OOOOOOOOOOOOOOOO####OOOOXXXX****oooo====",
"====oooo****XXXXOOOO####OOOOOOOOOOOOOOOO####OOOOXXXX****oooo====",
"====oooo****XXXXOOOO####OOOOOOOOOOOOOOOO####OOOOXXXX****oooo====",
"====oooo$$$$ooooOOOOoooo%%%%%%%%%%%%%%%%ooooOOOOoooo$$$$oooo====",
"====oooo$$$$ooooOOOOoooo%%%%%%%%%%%%%%%%ooooOOOOoooo$$$$oooo====",
"====oooo$$$$ooooOOOOoooo%%%%%%%%%%%%%%%%ooooOOOOoooo$$$$oooo====",
"====oooo$$$$ooooOOOOoooo%%%%%%%%%%%%%%%%ooooOOOOoooo$$$$oooo====",
"========oooo        ####%%%%%%%%%%%%%%%%####        oooo========",
"========oooo        ####%%%%%%%%%%%%%%%%####        oooo========",
"========oooo        ####%%%%%%%%%%%%%%%%####        oooo========",
"========oooo        ####%%%%%%%%%%%%%%%%####        oooo========",
"============XXXX&&&&########################&&&&XXXX============",
"============XXXX&&&&########################&&&&XXXX============",
"============XXXX&&&&########################&&&&XXXX============",
"============XXXX&&&&########################&&&&XXXX============",
"============        &&&&####oooooooo####&&&&        ============",
"============        &&&&####oooooooo####&&&&        ============",
"============        &&&&####oooooooo####&&&&        ============",
"============        &&&&####oooooooo####&&&&        ============",
"============    XXXXXXXX                XXXXXXXX    ============",
"============    XXXXXXXX                XXXXXXXX    ============",
"============    XXXXXXXX                XXXXXXXX    ============",
"============    XXXXXXXX                XXXXXXXX    ============",
"================        ================        ================",
"================        ================        ================",
"================        ================        ================",
"================        ================        ================",
"================================================================",
"================================================================",
"================================================================",
"================================================================"
};
