/* XPM */
static char *result[] = {
/* columns rows colors chars-per-pixel */
"63 79 12 1 ",
"  c black",
". c #682828",
"X c #383878",
"o c #784040",
"O c #C03838",
"+ c #A87840",
"@ c #F86848",
"# c #B89838",
"$ c #D89070",
"% c #F8D858",
"& c #70A0C0",
"* c None",
/* pixels */
"***************************************************************",
"***************************************************************",
"***************************************************************",
"****************................................***************",
"****************................................***************",
"****************................................***************",
"****************................................***************",
"************....OOOO@@@@@@@@@@@@@@@@@@@@@@@@OOOO....***********",
"************....OOOO@@@@@@@@@@@@@@@@@@@@@@@@OOOO....***********",
"************....OOOO@@@@@@@@@@@@@@@@@@@@@@@@OOOO....***********",
"************....OOOO@@@@@@@@@@@@@@@@@@@@@@@@OOOO....***********",
"************....@@@@@@@@@@@@@@@@@@@@@@@@@@@@@@@@....***********",
"************....@@@@@@@@@@@@@@@@@@@@@@@@@@@@@@@@....***********",
"************....@@@@@@@@@@@@@@@@@@@@@@@@@@@@@@@@....***********",
"************....@@@@@@@@@@@@@@@@@@@@@@@@@@@@@@@@....***********",
"********....OOOO@@@@@@@@@@@@@@@@@@@@@@@@@@@@@@@@OOOO....*******",
"********....OOOO@@@@@@@@@@@@@@@@@@@@@@@@@@@@@@@@OOOO....*******",
"********....OOOO@@@@@@@@@@@@@@@@@@@@@@@@@@@@@@@@OOOO....*******",
"********....OOOO@@@@@@@@@@@@@@@@@@@@@@@@@@@@@@@@OOOO....*******",
"********....OOOOOOOO@@@@@@@@@@@@@@@@@@@@@@@@OOOOOOOO....*******",
"********....OOOOOOOO@@@@@@@@@@@@@@@@@@@@@@@@OOOOOOOO....*******",
"********....OOOOOOOO@@@@@@@@@@@@@@@@@@@@@@@@OOOOOOOO....*******",
"********....OOOOOOOO@@@@@@@@@@@@@@@@@@@@@@@@OOOOOOOO....*******",
"********    OOOOOOOOOOOOOOOOOOOOOOOOOOOOOOOOOOOOOOOO    *******",
"********    OOOOOOOOOOOOOOOOOOOOOOOOOOOOOOOOOOOOOOOO    *******",
"********    OOOOOOOOOOOOOOOOOOOOOOOOOOOOOOOOOOOOOOOO    *******",
"********    OOOOOOOOOOOOOOOOOOOOOOOOOOOOOOOOOOOOOOOO    *******",
"********    ....OOOOOOOOOOOOOOOOOOOOOOOOOOOOOOOO....    *******",
"********    ....OOOOOOOOOOOOOOOOOOOOOOOOOOOOOOOO....    *******",
"********    ....OOOOOOOOOOOOOOOOOOOOOOOOOOOOOOOO....    *******",
"********    ....OOOOOOOOOOOOOOOOOOOOOOOOOOOOOOOO....    *******",
"****    ++++oooo....OOOOOOOO        OOOOOOOO....oooo++++    ***",
"****    ++++oooo....OOOOOOOO        OOOOOOOO....oooo++++    ***",
"****    ++++oooo....OOOOOOOO        OOOOOOOO....oooo++++    ***",
"****    ++++oooo....OOOOOOOO        OOOOOOOO....oooo++++    ***",
"****    $$$$    oooo........................oooo    $$$$    ***",
"****    $$$$    oooo........................oooo    $$$$    ***",
"****    $$$$    oooo........................oooo    $$$$    ***",
"****    $$$$    oooo........................oooo    $$$$    ***",
"********        oooooooo++++oooooooo++++oooooooo        oooo***",
"********        oooooooo++++oooooooo++++oooooooo        oooo***",
"********        oooooooo++++oooooooo++++oooooooo        oooo***",
"********        oooooooo++++oooooooo++++oooooooo        oooo***",
"************oooo        oooooooooooooooo        XXXX$$$$oooo***",
"************oooo        oooooooooooooooo        XXXX$$$$oooo***",
"************oooo        oooooooooooooooo        XXXX$$$$oooo***",
"************oooo        oooooooooooooooo        XXXX$$$$oooo***",
"************    XXXXoooo                ooooooooXXXXXXXXoooo***",
"************    XXXXoooo                ooooooooXXXXXXXXoooo***",
"************    XXXXoooo                ooooooooXXXXXXXXoooo***",
"************    XXXXoooo                ooooooooXXXXXXXXoooo***",
"********    XXXXoooo####OOOOOOOOOOOOOOOO####OOOOXXXX    *******",
"********    XXXXoooo####OOOOOOOOOOOOOOOO####OOOOXXXX    *******",
"********    XXXXoooo####OOOOOOOOOOOOOOOO####OOOOXXXX    *******",
"********    XXXXoooo####OOOOOOOOOOOOOOOO####OOOOXXXX    *******",
"****    $$$$XXXXOOOOoooo%%%%%%%%%%%%%%%%ooooOOOOoooo***********",
"****    $$$$XXXXOOOOoooo%%%%%%%%%%%%%%%%ooooOOOOoooo***********",
"****    $$$$XXXXOOOOoooo%%%%%%%%%%%%%%%%ooooOOOOoooo***********",
"****    $$$$XXXXOOOOoooo%%%%%%%%%%%%%%%%ooooOOOOoooo***********",
"****    $$$$$$$$OOOO####%%%%%%%%%%%%%%%%####OOOO    ***********",
"****    $$$$$$$$OOOO####%%%%%%%%%%%%%%%%####OOOO    ***********",
"****    $$$$$$$$OOOO####%%%%%%%%%%%%%%%%####OOOO    ***********",
"****    $$$$$$$$OOOO####%%%%%%%%%%%%%%%%####OOOO    ***********",
"********        XXXX########%%%%%%%%########XXXX    ***********",
"********        XXXX########%%%%%%%%########XXXX    ***********",
"********        XXXX########%%%%%%%%########XXXX    ***********",
"********        XXXX########%%%%%%%%########XXXX    ***********",
"****************        ####oooooooo####XXXXXXXX***************",
"****************        ####oooooooo####XXXXXXXX***************",
"****************        ####oooooooo####XXXXXXXX***************",
"****************        ####oooooooo####XXXXXXXX***************",
"************************            &&&&&&&&    ***************",
"************************            &&&&&&&&    ***************",
"************************            &&&&&&&&    ***************",
"************************            &&&&&&&&    ***************",
"************************************        *******************",
"************************************        *******************",
"************************************        *******************",
"************************************        *******************"
};
