/* XPM */
static char *result[] = {
/* columns rows colors chars-per-pixel */
"64 86 12 1 ",
"  c black",
". c #383818",
"X c #484858",
"o c #784040",
"O c #904028",
"+ c #E07050",
"@ c #D89870",
"# c #889090",
"$ c #F0C098",
"% c #C0C8D8",
"& c #FFFDFD",
"* c None",
/* pixels */
"****************************************************************",
"****************************************************************",
"************************XXXXXXXXXXXXXXXX************************",
"************************XXXXXXXXXXXXXXXX************************",
"************************XXXXXXXXXXXXXXXX************************",
"************************XXXXXXXXXXXXXXXX************************",
"****************........################........****************",
"****************........################........****************",
"****************........################........****************",
"****************........################........****************",
"************....XXXX########################XXXX....************",
"************....XXXX########################XXXX....************",
"************....XXXX########################XXXX....************",
"************....XXXX########################XXXX....************",
"********    XXXXXXXX########################XXXXXXXX    ********",
"********    XXXXXXXX########################XXXXXXXX    ********",
"********    XXXXXXXX########################XXXXXXXX    ********",
"********    XXXXXXXX########################XXXXXXXX    ********",
"********    XXXXXXXXXXXX################XXXXXXXXXXXX    ********",
"********    XXXXXXXXXXXX################XXXXXXXXXXXX    ********",
"********    XXXXXXXXXXXX################XXXXXXXXXXXX    ********",
"********    XXXXXXXXXXXX################XXXXXXXXXXXX    ********",
"********    XXXXXXXXXXXXXXXXXXXXXXXXXXXXXXXXXXXXXXXX    ********",
"********    XXXXXXXXXXXXXXXXXXXXXXXXXXXXXXXXXXXXXXXX    ********",
"********    XXXXXXXXXXXXXXXXXXXXXXXXXXXXXXXXXXXXXXXX    ********",
"********    XXXXXXXXXXXXXXXXXXXXXXXXXXXXXXXXXXXXXXXX    ********",
"****    @@@@    ................................    @@@@    ****",
"****    @@@@    ................................    @@@@    ****",
"****    @@@@    ................................    @@@@    ****",
"****    @@@@    ................................    @@@@    ****",
"****    $$$$        ########################        $$$$    ****",
"****    $$$$        ########################        $$$$    ****",
"****    $$$$        ########################        $$$$    ****",
"****    $$$$        ########################        $$$$    ****",
"********        @@@@XXXX    XXXXXXXX    XXXX@@@@        ********",
"********        @@@@XXXX    XXXXXXXX    XXXX@@@@        ********",
"********        @@@@XXXX    XXXXXXXX    XXXX@@@@        ********",
"********        @@@@XXXX    XXXXXXXX    XXXX@@@@        ********",
"************    $$$$@@@@    @@@@@@@@    @@@@$$$$    ************",
"************    $$$$@@@@    @@@@@@@@    @@@@$$$$    ************",
"************    $$$$@@@@    @@@@@@@@    @@@@$$$$    ************",
"************    $$$$@@@@    @@@@@@@@    @@@@$$$$    ************",
"************    @@@@$$$$$$$$$$$$$$$$$$$$$$$$@@@@    ************",
"************    @@@@$$$$$$$$$$$$$$$$$$$$$$$$@@@@    ************",
"************    @@@@$$$$$$$$$$$$$$$$$$$$$$$$@@@@    ************",
"************    @@@@$$$$$$$$$$$$$$$$$$$$$$$$@@@@    ************",
"********    ####XXXXoooo@@@@@@@@@@@@@@@@ooooXXXX####    ********",
"********    ####XXXXoooo@@@@@@@@@@@@@@@@ooooXXXX####    ********",
"********    ####XXXXoooo@@@@@@@@@@@@@@@@ooooXXXX####    ********",
"********    ####XXXXoooo@@@@@@@@@@@@@@@@ooooXXXX####    ********",
"****    XXXX####    XXXX                XXXX    ####XXXX    ****",
"****    XXXX####    XXXX                XXXX    ####XXXX    ****",
"****    XXXX####    XXXX                XXXX    ####XXXX    ****",
"****    XXXX####    XXXX                XXXX    ####XXXX    ****",
"****XXXX&&&&XXXX    ####++++OOOOOOOO++++####    XXXX&&&&XXXX****",
"****XXXX&&&&XXXX    ####++++OOOOOOOO++++####    XXXX&&&&XXXX****",
"****XXXX&&&&XXXX    ####++++OOOOOOOO++++####    XXXX&&&&XXXX****",
"****XXXX&&&&XXXX    ####++++OOOOOOOO++++####    XXXX&&&&XXXX****",
"****XXXX%%%%%%%%....####++++++++++++OOOO####....%%%%%%%%XXXX****",
"****XXXX%%%%%%%%....####++++++++++++OOOO####....%%%%%%%%XXXX****",
"****XXXX%%%%%%%%....####++++++++++++OOOO####....%%%%%%%%XXXX****",
"****XXXX%%%%%%%%....####++++++++++++OOOO####....%%%%%%%%XXXX****",
"********            XXXX++++OOOOOOOO++++XXXX            ********",
"********            XXXX++++OOOOOOOO++++XXXX            ********",
"********            XXXX++++OOOOOOOO++++XXXX            ********",
"********            XXXX++++OOOOOOOO++++XXXX            ********",
"************....XXXX        XXXXXXXX        XXXX....************",
"************....XXXX        XXXXXXXX        XXXX....************",
"************....XXXX        XXXXXXXX        XXXX....************",
"************....XXXX        XXXXXXXX        XXXX....************",
"************        XXXXXXXX        XXXXXXXX        ************",
"************        XXXXXXXX        XXXXXXXX        ************",
"************        XXXXXXXX        XXXXXXXX        ************",
"************        XXXXXXXX        XXXXXXXX        ************",
"************    %%%%%%%%    ********    %%%%%%%%    ************",
"************    %%%%%%%%    ********    %%%%%%%%    ************",
"************    %%%%%%%%    ********    %%%%%%%%    ************",
"************    %%%%%%%%    ********    %%%%%%%%    ************",
"****************        ****************        ****************",
"****************        ****************        ****************",
"****************        ****************        ****************",
"****************        ****************        ****************",
"****************************************************************",
"****************************************************************",
"****************************************************************",
"****************************************************************"
};
