/* XPM */
static char *result[] = {
/* columns rows colors chars-per-pixel */
"64 87 9 1 ",
"  c black",
". c #383818",
"X c #484858",
"o c #787040",
"O c #D89870",
"+ c #889090",
"@ c #F0C098",
"# c #C0C8D8",
"$ c None",
/* pixels */
"$$$$$$$$$$$$$$$$$$$$$$$$$$$$$$$$$$$$$$$$$$$$$$$$$$$$$$$$$$$$$$$$",
"$$$$$$$$$$$$$$$$$$$$$$$$$$$$$$$$$$$$$$$$$$$$$$$$$$$$$$$$$$$$$$$$",
"$$$$$$$$$$$$$$$$$$$$$$$$$$$$$$$$$$$$$$$$$$$$$$$$$$$$$$$$$$$$$$$$",
"$$$$$$$$$$$$$$$$$$$$$$$$XXXXXXXXXXXXXXXX$$$$$$$$$$$$$$$$$$$$$$$$",
"$$$$$$$$$$$$$$$$$$$$$$$$XXXXXXXXXXXXXXXX$$$$$$$$$$$$$$$$$$$$$$$$",
"$$$$$$$$$$$$$$$$$$$$$$$$XXXXXXXXXXXXXXXX$$$$$$$$$$$$$$$$$$$$$$$$",
"$$$$$$$$$$$$$$$$$$$$$$$$XXXXXXXXXXXXXXXX$$$$$$$$$$$$$$$$$$$$$$$$",
"$$$$$$$$$$$$$$$$........++++++++++++++++........$$$$$$$$$$$$$$$$",
"$$$$$$$$$$$$$$$$........++++++++++++++++........$$$$$$$$$$$$$$$$",
"$$$$$$$$$$$$$$$$........++++++++++++++++........$$$$$$$$$$$$$$$$",
"$$$$$$$$$$$$$$$$........++++++++++++++++........$$$$$$$$$$$$$$$$",
"$$$$$$$$$$$$....XXXX++++++++++++++++++++++++XXXX....$$$$$$$$$$$$",
"$$$$$$$$$$$$....XXXX++++++++++++++++++++++++XXXX....$$$$$$$$$$$$",
"$$$$$$$$$$$$....XXXX++++++++++++++++++++++++XXXX....$$$$$$$$$$$$",
"$$$$$$$$$$$$....XXXX++++++++++++++++++++++++XXXX....$$$$$$$$$$$$",
"$$$$$$$$    XXXXXXXX++++++++++++++++++++++++XXXXXXXX    $$$$$$$$",
"$$$$$$$$    XXXXXXXX++++++++++++++++++++++++XXXXXXXX    $$$$$$$$",
"$$$$$$$$    XXXXXXXX++++++++++++++++++++++++XXXXXXXX    $$$$$$$$",
"$$$$$$$$    XXXXXXXX++++++++++++++++++++++++XXXXXXXX    $$$$$$$$",
"$$$$$$$$    XXXXXXXXXXXX++++++++++++++++XXXXXXXXXXXX    $$$$$$$$",
"$$$$$$$$    XXXXXXXXXXXX++++++++++++++++XXXXXXXXXXXX    $$$$$$$$",
"$$$$$$$$    XXXXXXXXXXXX++++++++++++++++XXXXXXXXXXXX    $$$$$$$$",
"$$$$$$$$    XXXXXXXXXXXX++++++++++++++++XXXXXXXXXXXX    $$$$$$$$",
"$$$$$$$$    XXXXXXXXXXXXXXXXXXXXXXXXXXXXXXXXXXXXXXXX    $$$$$$$$",
"$$$$$$$$    XXXXXXXXXXXXXXXXXXXXXXXXXXXXXXXXXXXXXXXX    $$$$$$$$",
"$$$$$$$$    XXXXXXXXXXXXXXXXXXXXXXXXXXXXXXXXXXXXXXXX    $$$$$$$$",
"$$$$$$$$    XXXXXXXXXXXXXXXXXXXXXXXXXXXXXXXXXXXXXXXX    $$$$$$$$",
"$$$$    OOOO    XXXXXXXXXXXXXXXXXXXXXXXXXXXXXXXX    OOOO    $$$$",
"$$$$    OOOO    XXXXXXXXXXXXXXXXXXXXXXXXXXXXXXXX    OOOO    $$$$",
"$$$$    OOOO    XXXXXXXXXXXXXXXXXXXXXXXXXXXXXXXX    OOOO    $$$$",
"$$$$    OOOO    XXXXXXXXXXXXXXXXXXXXXXXXXXXXXXXX    OOOO    $$$$",
"$$$$    @@@@            XXXXXXXXXXXXXXXX            @@@@    $$$$",
"$$$$    @@@@            XXXXXXXXXXXXXXXX            @@@@    $$$$",
"$$$$    @@@@            XXXXXXXXXXXXXXXX            @@@@    $$$$",
"$$$$    @@@@            XXXXXXXXXXXXXXXX            @@@@    $$$$",
"$$$$$$$$        ....oooo................oooo....        $$$$$$$$",
"$$$$$$$$        ....oooo................oooo....        $$$$$$$$",
"$$$$$$$$        ....oooo................oooo....        $$$$$$$$",
"$$$$$$$$        ....oooo................oooo....        $$$$$$$$",
"$$$$$$$$$$$$    ........oooooooooooooooo........    $$$$$$$$$$$$",
"$$$$$$$$$$$$    ........oooooooooooooooo........    $$$$$$$$$$$$",
"$$$$$$$$$$$$    ........oooooooooooooooo........    $$$$$$$$$$$$",
"$$$$$$$$$$$$    ........oooooooooooooooo........    $$$$$$$$$$$$",
"$$$$$$$$$$$$        ........................        $$$$$$$$$$$$",
"$$$$$$$$$$$$        ........................        $$$$$$$$$$$$",
"$$$$$$$$$$$$        ........................        $$$$$$$$$$$$",
"$$$$$$$$$$$$        ........................        $$$$$$$$$$$$",
"$$$$$$$$    ++++XXXX    ................    XXXX++++    $$$$$$$$",
"$$$$$$$$    ++++XXXX    ................    XXXX++++    $$$$$$$$",
"$$$$$$$$    ++++XXXX    ................    XXXX++++    $$$$$$$$",
"$$$$$$$$    ++++XXXX    ................    XXXX++++    $$$$$$$$",
"$$$$    XXXX++++    ++++                ++++    ++++XXXX    $$$$",
"$$$$    XXXX++++    ++++                ++++    ++++XXXX    $$$$",
"$$$$    XXXX++++    ++++                ++++    ++++XXXX    $$$$",
"$$$$    XXXX++++    ++++                ++++    ++++XXXX    $$$$",
"$$$$XXXX####XXXX    ++++++++++++++++++++++++    XXXX####XXXX$$$$",
"$$$$XXXX####XXXX    ++++++++++++++++++++++++    XXXX####XXXX$$$$",
"$$$$XXXX####XXXX    ++++++++++++++++++++++++    XXXX####XXXX$$$$",
"$$$$XXXX####XXXX    ++++++++++++++++++++++++    XXXX####XXXX$$$$",
"$$$$XXXX####XXXX    ++++++++++++++++++++++++    XXXX####XXXX$$$$",
"$$$$XXXX####XXXX    ++++++++++++++++++++++++    XXXX####XXXX$$$$",
"$$$$XXXX####XXXX    ++++++++++++++++++++++++    XXXX####XXXX$$$$",
"$$$$XXXX####XXXX    ++++++++++++++++++++++++    XXXX####XXXX$$$$",
"$$$$$$$$            XXXX++++++++++++++++XXXX            $$$$$$$$",
"$$$$$$$$            XXXX++++++++++++++++XXXX            $$$$$$$$",
"$$$$$$$$            XXXX++++++++++++++++XXXX            $$$$$$$$",
"$$$$$$$$            XXXX++++++++++++++++XXXX            $$$$$$$$",
"$$$$$$$$$$$$....XXXX        XXXXXXXX        XXXX....$$$$$$$$$$$$",
"$$$$$$$$$$$$....XXXX        XXXXXXXX        XXXX....$$$$$$$$$$$$",
"$$$$$$$$$$$$....XXXX        XXXXXXXX        XXXX....$$$$$$$$$$$$",
"$$$$$$$$$$$$....XXXX        XXXXXXXX        XXXX....$$$$$$$$$$$$",
"$$$$$$$$$$$$        XXXXXXXX        XXXXXXXX        $$$$$$$$$$$$",
"$$$$$$$$$$$$        XXXXXXXX        XXXXXXXX        $$$$$$$$$$$$",
"$$$$$$$$$$$$        XXXXXXXX        XXXXXXXX        $$$$$$$$$$$$",
"$$$$$$$$$$$$        XXXXXXXX        XXXXXXXX        $$$$$$$$$$$$",
"$$$$$$$$$$$$    ########    $$$$$$$$    ########    $$$$$$$$$$$$",
"$$$$$$$$$$$$    ########    $$$$$$$$    ########    $$$$$$$$$$$$",
"$$$$$$$$$$$$    ########    $$$$$$$$    ########    $$$$$$$$$$$$",
"$$$$$$$$$$$$    ########    $$$$$$$$    ########    $$$$$$$$$$$$",
"$$$$$$$$$$$$$$$$        $$$$$$$$$$$$$$$$        $$$$$$$$$$$$$$$$",
"$$$$$$$$$$$$$$$$        $$$$$$$$$$$$$$$$        $$$$$$$$$$$$$$$$",
"$$$$$$$$$$$$$$$$        $$$$$$$$$$$$$$$$        $$$$$$$$$$$$$$$$",
"$$$$$$$$$$$$$$$$        $$$$$$$$$$$$$$$$        $$$$$$$$$$$$$$$$",
"$$$$$$$$$$$$$$$$$$$$$$$$$$$$$$$$$$$$$$$$$$$$$$$$$$$$$$$$$$$$$$$$",
"$$$$$$$$$$$$$$$$$$$$$$$$$$$$$$$$$$$$$$$$$$$$$$$$$$$$$$$$$$$$$$$$",
"$$$$$$$$$$$$$$$$$$$$$$$$$$$$$$$$$$$$$$$$$$$$$$$$$$$$$$$$$$$$$$$$",
"$$$$$$$$$$$$$$$$$$$$$$$$$$$$$$$$$$$$$$$$$$$$$$$$$$$$$$$$$$$$$$$$"
};
