/* XPM */
static char *result[] = {
/* columns rows colors chars-per-pixel */
"64 85 13 1 ",
"  c black",
". c #383818",
"X c #501000",
"o c #484858",
"O c #784040",
"+ c #904028",
"@ c #E07050",
"# c #D89870",
"$ c #889090",
"% c #F0C098",
"& c #C0C8D8",
"* c #FFFDFD",
"= c None",
/* pixels */
"================================================================",
"====================oooooooooooooooo============================",
"====================oooooooooooooooo============================",
"====================oooooooooooooooo============================",
"====================oooooooooooooooo============================",
"============........$$$$$$$$$$$$$$$$........====================",
"============........$$$$$$$$$$$$$$$$........====================",
"============........$$$$$$$$$$$$$$$$........====================",
"============........$$$$$$$$$$$$$$$$........====================",
"========    oooo$$$$$$$$$$$$$$$$$$$$$$$$oooo....================",
"========    oooo$$$$$$$$$$$$$$$$$$$$$$$$oooo....================",
"========    oooo$$$$$$$$$$$$$$$$$$$$$$$$oooo....================",
"========    oooo$$$$$$$$$$$$$$$$$$$$$$$$oooo....================",
"========....oooo$$$$$$$$$$$$$$$$$$$$$$$$oooooooo    ============",
"========....oooo$$$$$$$$$$$$$$$$$$$$$$$$oooooooo    ============",
"========....oooo$$$$$$$$$$$$$$$$$$$$$$$$oooooooo    ============",
"========....oooo$$$$$$$$$$$$$$$$$$$$$$$$oooooooo    ============",
"====    oooooooooooo$$$$$$$$$$$$$$$$oooooooooooo    ============",
"====    oooooooooooo$$$$$$$$$$$$$$$$oooooooooooo    ============",
"====    oooooooooooo$$$$$$$$$$$$$$$$oooooooooooo    ============",
"====    oooooooooooo$$$$$$$$$$$$$$$$oooooooooooo    ============",
"====    oooooooooooooooooooooooooooooooooooooooo        ========",
"====    oooooooooooooooooooooooooooooooooooooooo        ========",
"====    oooooooooooooooooooooooooooooooooooooooo        ========",
"====    oooooooooooooooooooooooooooooooooooooooo        ========",
"====    oooooooooooooooooooooooooooooooo........$$$$    ========",
"====    oooooooooooooooooooooooooooooooo........$$$$    ========",
"====    oooooooooooooooooooooooooooooooo........$$$$    ========",
"====    oooooooooooooooooooooooooooooooo........$$$$    ========",
"========    oooooooooooooooo............$$$$$$$$oooo============",
"========    oooooooooooooooo............$$$$$$$$oooo============",
"========    oooooooooooooooo............$$$$$$$$oooo============",
"========    oooooooooooooooo............$$$$$$$$oooo============",
"========                    oooooooo    oooooooo    ============",
"========                    oooooooo    oooooooo    ============",
"========                    oooooooo    oooooooo    ============",
"========                    oooooooo    oooooooo    ============",
"========        ####%%%%....########    ########OOOO============",
"========        ####%%%%....########    ########OOOO============",
"========        ####%%%%....########    ########OOOO============",
"========        ####%%%%....########    ########OOOO============",
"============    ####%%%%....####%%%%%%%%%%%%OOOO================",
"============    ####%%%%....####%%%%%%%%%%%%OOOO================",
"============    ####%%%%....####%%%%%%%%%%%%OOOO================",
"============    ####%%%%....####%%%%%%%%%%%%OOOO================",
"================    OOOO################OOOO====================",
"================    OOOO################OOOO====================",
"================    OOOO################OOOO====================",
"================    OOOO################OOOO====================",
"================oooooooo        ooooooooXXXX====================",
"================oooooooo        ooooooooXXXX====================",
"================oooooooo        ooooooooXXXX====================",
"================oooooooo        ooooooooXXXX====================",
"============    oooo    $$$$$$$$    @@@@XXXX====================",
"============    oooo    $$$$$$$$    @@@@XXXX====================",
"============    oooo    $$$$$$$$    @@@@XXXX====================",
"============    oooo    $$$$$$$$    @@@@XXXX====================",
"============    oooo    $$$$$$$$    @@@@XXXX====================",
"============    oooo    $$$$$$$$    @@@@XXXX====================",
"============    oooo    $$$$$$$$    @@@@XXXX====================",
"============    oooo    $$$$$$$$    @@@@XXXX====================",
"============    oooo    ********    ++++    ====================",
"============    oooo    ********    ++++    ====================",
"============    oooo    ********    ++++    ====================",
"============    oooo    ********    ++++    ====================",
"================        &&&&&&&&        ========================",
"================        &&&&&&&&        ========================",
"================        &&&&&&&&        ========================",
"================        &&&&&&&&        ========================",
"================    oooo        oooo    ========================",
"================    oooo        oooo    ========================",
"================    oooo        oooo    ========================",
"================    oooo        oooo    ========================",
"====================    $$$$&&&&&&&&    ========================",
"====================    $$$$&&&&&&&&    ========================",
"====================    $$$$&&&&&&&&    ========================",
"====================    $$$$&&&&&&&&    ========================",
"========================            ============================",
"========================            ============================",
"========================            ============================",
"========================            ============================",
"================================================================",
"================================================================",
"================================================================",
"================================================================"
};
