/* XPM */
static char *_ccc5c74b79a48c2d275190665f2df09N6KhbT5BDyOEUhZD[] = {
/* columns rows colors chars-per-pixel */
"64 64 8 1 ",
"  c black",
". c #383818",
"X c #787040",
"o c #C8A860",
"O c #6FC8A0",
"+ c #6FC9A0",
"@ c #6FC9A1",
"# c #70C9A1",
/* pixels */
"OOOO############@@++++OOOOOO####@@++####++OO############++++####",
"OOOO############@@++++OOOOOO####@@++####++OO############++++####",
"OOOO############@@@@++++@@OO####@@@@####++++############++++####",
"OOOO############@@@@++++@@OO####@@@@####++++############++++####",
"OOOOOOOO################............####@@@@############OOOO####",
"OOOOOOOO################............####@@@@############OOOO####",
"OOOOOOOO################............####@@@@############@@OO####",
"OOOOOOOO################............####@@@@############@@OO####",
"####OOOOOOOOOOOO............oooooooo........########OOOO@@++@@@@",
"####OOOOOOOOOOOO............oooooooo........########OOOO@@++@@@@",
"####OOOOOOOO@@OO............oooooooo........########OOOO@@@@@@@@",
"####OOOOOOOO@@@@............oooooooo........########OOOO@@@@@@@@",
"########@@@@............ooooooooooooooooXXXX....####++OO########",
"########@@@@............ooooooooooooooooXXXX....####++OO########",
"########@@@@............ooooooooooooooooXXXX....####++++########",
"########@@@@............ooooooooooooooooXXXX....####++++########",
"########....XXXXoooo....ooooooooooooXXXXXXXX....    OOOO########",
"########....XXXXoooo....ooooooooooooXXXXXXXX....    OOOO########",
"########....XXXXoooo....ooooooooooooXXXXXXXX....    OOOO########",
"########....XXXXoooo....ooooooooooooXXXXXXXX....    OOOO########",
"########........ooooooooXXXXooooXXXXoooo....    XXXX    OOOO####",
"########........ooooooooXXXXooooXXXXoooo....    XXXX    OOOO####",
"########........ooooooooXXXXooooXXXXoooo....    XXXX    OOOO####",
"########........ooooooooXXXXooooXXXXoooo....    XXXX    OOOO####",
"####....XXXX    XXXXoooooooo........        ........    OOOO####",
"####....XXXX    XXXXoooooooo........        ........    OOOO####",
"####....XXXX    XXXXoooooooo........        ........    OOOO####",
"####....XXXX    XXXXoooooooo........        ........    OOOO####",
"####    ....    ....XXXXooooXXXXooooXXXX....XXXXXXXX....    OOOO",
"####    ....    ....XXXXooooXXXXooooXXXX....XXXXXXXX....    OOOO",
"####    ....    ....XXXXooooXXXXooooXXXX....XXXXXXXX....    @@OO",
"####    ....    ....XXXXooooXXXXooooXXXX....XXXXXXXX....    @@@@",
"####    XXXXoooo........XXXXooooXXXX    XXXXXXXXXXXX        OOOO",
"####    XXXXoooo........XXXXooooXXXX    XXXXXXXXXXXX        OOOO",
"####    XXXXoooo........XXXXooooXXXX    XXXXXXXXXXXX        OOOO",
"####    XXXXoooo........XXXXooooXXXX    XXXXXXXXXXXX        OOOO",
"OOOO    ....XXXXoooo....ooooXXXX....    ....XXXX    ....    ####",
"OOOO    ....XXXXoooo....ooooXXXX....    ....XXXX    ....    ####",
"@@OO    ....XXXXoooo....ooooXXXX....    ....XXXX    ....    ####",
"@@@@    ....XXXXoooo....ooooXXXX....    ....XXXX    ....    ####",
"OOOO    ............    ........XXXXXXXX    ............    ####",
"OOOO    ............    ........XXXXXXXX    ............    ####",
"OOOO    ............    ........XXXXXXXX    ............    ####",
"OOOO    ............    ........XXXXXXXX    ............    ####",
"####    ........        ....XXXX........        ........    OOOO",
"####    ........        ....XXXX........        ........    OOOO",
"####    ........        ....XXXX........        ........    OOOO",
"####    ........        ....XXXX........        ........    OOOO",
"OOOO####    ....        ................                OOOO####",
"OOOO####    ....        ................                OOOO####",
"OOOO####    ....        ................                OOOO####",
"OOOO####    ....        ................                OOOO####",
"############                ........            ################",
"############                ........            ################",
"############                ........            ################",
"############                ........            ################",
"####################++OO                ++OOOOOO################",
"####################++OO                ++OOOOOO################",
"####################++++                ++++OOOO################",
"####################++++                ++++OOOO################",
"####################@OOOOOOO####OOOOOOOO@@++@@@@####@@@@########",
"####################@OOOOOOO####OOOOOOOO@@++@@@@####@@@@########",
"####################++OOOOOO####OOOOOOOO@@@@@@@@####@@@@########",
"####################++OOOOOO####OOOOOOOO@@@@@@@@####@@@@########"
};
